<svg width="512" height="512" viewBox="0 0 512 512" fill="none" xmlns="http://www.w3.org/2000/svg">
<g clip-path="url(#clip0_2183_1866)">
<rect width="512" height="512" fill="white"/>
<rect width="512" height="144" fill="#FF6820"/>
<rect y="368" width="512" height="144" fill="#046A38"/>
<path d="M256 163.5C307.086 163.5 348.5 204.914 348.5 256C348.5 307.086 307.086 348.5 256 348.5C204.914 348.5 163.5 307.086 163.5 256C163.5 204.914 204.914 163.5 256 163.5ZM259 224.141L256.999 240.031C257.736 240.077 258.46 240.172 259.167 240.313L261.348 224.45L276.706 178.726L267.144 226.003L261.101 240.83C261.796 241.064 262.47 241.345 263.119 241.668L269.331 226.909L296 186.718L274.527 229.909L264.851 242.67C265.459 243.074 266.037 243.519 266.583 244.001L276.406 231.351L312.568 199.432L280.649 235.594L267.998 245.416C268.48 245.962 268.925 246.54 269.329 247.148L282.091 237.473L325.282 216L285.091 242.668L270.331 248.88C270.654 249.529 270.935 250.204 271.169 250.899L285.997 244.856L333.274 235.295L287.55 250.652L271.686 252.832C271.828 253.539 271.922 254.263 271.968 255L287.859 253L336 256L287.859 259L271.968 256.999C271.922 257.736 271.828 258.46 271.686 259.167L287.55 261.348L333.274 276.705L285.997 267.144L271.169 261.1C270.935 261.796 270.654 262.47 270.331 263.119L285.091 269.331L325.282 296L282.091 274.527L269.329 264.851C268.925 265.459 268.48 266.037 267.998 266.583L280.649 276.406L312.568 312.568L276.406 280.649L266.583 267.998C266.037 268.48 265.459 268.925 264.851 269.329L274.527 282.091L296 325.282L269.332 285.091L263.119 270.331C262.47 270.654 261.796 270.935 261.1 271.169L267.144 285.997L276.705 333.274L261.348 287.55L259.167 271.686C258.46 271.828 257.736 271.922 256.999 271.968L259 287.859L256 336C258.346 336 260.669 335.898 262.964 335.7C262.754 333.812 264.093 332.095 265.985 331.846C267.88 331.596 269.618 332.912 269.901 334.794C274.537 333.982 279.036 332.771 283.36 331.197C282.658 329.424 283.507 327.409 285.275 326.677C287.043 325.945 289.066 326.769 289.824 328.518C294.059 326.539 298.091 324.2 301.882 321.541C300.756 320.01 301.056 317.854 302.57 316.691C304.084 315.53 306.242 315.797 307.43 317.278C310.991 314.287 314.287 310.991 317.278 307.43C315.797 306.242 315.53 304.084 316.691 302.57C317.854 301.056 320.01 300.756 321.541 301.882C324.2 298.091 326.539 294.059 328.518 289.824C326.769 289.066 325.945 287.043 326.677 285.275C327.409 283.507 329.424 282.658 331.197 283.36C332.771 279.036 333.982 274.537 334.794 269.901C332.912 269.618 331.596 267.88 331.846 265.985C332.095 264.093 333.812 262.754 335.7 262.964C335.898 260.669 336 258.346 336 256C336 253.653 335.898 251.33 335.7 249.035C333.812 249.245 332.095 247.907 331.846 246.015C331.596 244.12 332.912 242.381 334.794 242.098C333.982 237.462 332.771 232.963 331.197 228.639C329.424 229.341 327.409 228.493 326.677 226.725C325.945 224.957 326.769 222.933 328.518 222.175C326.539 217.94 324.2 213.908 321.541 210.117C320.01 211.244 317.854 210.944 316.691 209.43C315.53 207.916 315.797 205.757 317.278 204.569C314.287 201.009 310.991 197.712 307.43 194.721C306.242 196.202 304.084 196.47 302.57 195.309C301.056 194.146 300.755 191.989 301.882 190.458C298.091 187.799 294.059 185.46 289.824 183.481C289.066 185.231 287.043 186.055 285.275 185.323C283.507 184.591 282.658 182.575 283.36 180.802C279.036 179.228 274.537 178.017 269.901 177.205C269.619 179.087 267.88 180.404 265.985 180.154C264.093 179.905 262.754 178.187 262.964 176.299C260.669 176.101 258.346 176 256 176L259 224.141ZM256 176C253.653 176 251.33 176.101 249.035 176.299C249.245 178.187 247.907 179.905 246.015 180.154C244.12 180.404 242.38 179.087 242.098 177.205C237.462 178.017 232.963 179.228 228.639 180.802C229.341 182.575 228.493 184.591 226.725 185.323C224.956 186.056 222.933 185.231 222.175 183.481C217.94 185.46 213.908 187.799 210.117 190.458C211.244 191.989 210.945 194.146 209.43 195.309C207.916 196.47 205.757 196.202 204.569 194.721C201.009 197.712 197.712 201.009 194.721 204.569C196.202 205.757 196.47 207.916 195.309 209.43C194.146 210.945 191.989 211.244 190.458 210.117C187.799 213.908 185.46 217.94 183.481 222.175C185.231 222.933 186.056 224.956 185.323 226.725C184.591 228.493 182.575 229.341 180.802 228.639C179.228 232.963 178.017 237.462 177.205 242.098C179.087 242.38 180.404 244.12 180.154 246.015C179.905 247.907 178.188 249.245 176.299 249.035C176.101 251.33 176 253.653 176 256C176 258.346 176.101 260.669 176.299 262.964C178.187 262.754 179.905 264.093 180.154 265.985C180.404 267.88 179.087 269.619 177.205 269.901C178.017 274.537 179.228 279.036 180.802 283.36C182.575 282.658 184.591 283.507 185.323 285.275C186.056 287.043 185.231 289.066 183.481 289.824C185.46 294.059 187.799 298.091 190.458 301.882C191.989 300.755 194.146 301.056 195.309 302.57C196.47 304.084 196.202 306.242 194.721 307.43C197.712 310.991 201.009 314.287 204.569 317.278C205.757 315.797 207.916 315.53 209.43 316.691C210.944 317.854 211.244 320.01 210.117 321.541C213.908 324.2 217.94 326.539 222.175 328.518C222.933 326.768 224.957 325.945 226.725 326.677C228.493 327.409 229.341 329.424 228.639 331.197C232.963 332.771 237.462 333.982 242.098 334.794C242.381 332.912 244.12 331.596 246.015 331.846C247.907 332.095 249.245 333.812 249.035 335.7C251.33 335.898 253.653 336 256 336L253 287.859L255 271.968C254.263 271.922 253.539 271.828 252.832 271.686L250.652 287.55L235.295 333.274L244.856 285.997L250.899 271.169C250.204 270.935 249.529 270.654 248.88 270.331L242.669 285.091L216 325.282L237.473 282.091L247.148 269.329C246.54 268.925 245.962 268.48 245.416 267.998L235.594 280.649L199.432 312.568L231.351 276.406L244.001 266.583C243.519 266.037 243.074 265.459 242.67 264.851L229.909 274.527L186.718 296L226.909 269.332L241.668 263.119C241.345 262.47 241.064 261.795 240.83 261.1L226.003 267.144L178.726 276.705L224.45 261.348L240.313 259.167C240.172 258.46 240.077 257.736 240.031 256.999L224.141 259L176 256L224.141 253L240.031 255C240.077 254.263 240.171 253.539 240.313 252.832L224.45 250.652L178.726 235.295L226.003 244.856L240.83 250.899C241.064 250.204 241.345 249.529 241.668 248.88L226.909 242.669L186.718 216L229.909 237.473L242.67 247.148C243.074 246.54 243.519 245.962 244.001 245.416L231.351 235.594L199.432 199.432L235.594 231.351L245.416 244.001C245.962 243.519 246.54 243.074 247.148 242.67L237.473 229.909L216 186.718L242.668 226.909L248.88 241.668C249.529 241.345 250.204 241.064 250.899 240.83L244.856 226.003L235.295 178.726L250.652 224.45L252.832 240.313C253.539 240.171 254.263 240.077 255 240.031L253 224.141L256 176Z" fill="#07038D"/>
<path d="M256 163.5C307.086 163.5 348.5 204.914 348.5 256C348.5 307.086 307.086 348.5 256 348.5C204.914 348.5 163.5 307.086 163.5 256C163.5 204.914 204.914 163.5 256 163.5ZM259 224.141L256.999 240.031C257.736 240.077 258.46 240.172 259.167 240.313L261.348 224.45L276.706 178.726L267.144 226.003L261.101 240.83C261.796 241.064 262.47 241.345 263.119 241.668L269.331 226.909L296 186.718L274.527 229.909L264.851 242.67C265.459 243.074 266.037 243.519 266.583 244.001L276.406 231.351L312.568 199.432L280.649 235.594L267.998 245.416C268.48 245.962 268.925 246.54 269.329 247.148L282.091 237.473L325.282 216L285.091 242.668L270.331 248.88C270.654 249.529 270.935 250.204 271.169 250.899L285.997 244.856L333.274 235.295L287.55 250.652L271.686 252.832C271.828 253.539 271.922 254.263 271.968 255L287.859 253L336 256L287.859 259L271.968 256.999C271.922 257.736 271.828 258.46 271.686 259.167L287.55 261.348L333.274 276.705L285.997 267.144L271.169 261.1C270.935 261.796 270.654 262.47 270.331 263.119L285.091 269.331L325.282 296L282.091 274.527L269.329 264.851C268.925 265.459 268.48 266.037 267.998 266.583L280.649 276.406L312.568 312.568L276.406 280.649L266.583 267.998C266.037 268.48 265.459 268.925 264.851 269.329L274.527 282.091L296 325.282L269.332 285.091L263.119 270.331C262.47 270.654 261.796 270.935 261.1 271.169L267.144 285.997L276.705 333.274L261.348 287.55L259.167 271.686C258.46 271.828 257.736 271.922 256.999 271.968L259 287.859L256 336C258.346 336 260.669 335.898 262.964 335.7C262.754 333.812 264.093 332.095 265.985 331.846C267.88 331.596 269.618 332.912 269.901 334.794C274.537 333.982 279.036 332.771 283.36 331.197C282.658 329.424 283.507 327.409 285.275 326.677C287.043 325.945 289.066 326.769 289.824 328.518C294.059 326.539 298.091 324.2 301.882 321.541C300.756 320.01 301.056 317.854 302.57 316.691C304.084 315.53 306.242 315.797 307.43 317.278C310.991 314.287 314.287 310.991 317.278 307.43C315.797 306.242 315.53 304.084 316.691 302.57C317.854 301.056 320.01 300.756 321.541 301.882C324.2 298.091 326.539 294.059 328.518 289.824C326.769 289.066 325.945 287.043 326.677 285.275C327.409 283.507 329.424 282.658 331.197 283.36C332.771 279.036 333.982 274.537 334.794 269.901C332.912 269.618 331.596 267.88 331.846 265.985C332.095 264.093 333.812 262.754 335.7 262.964C335.898 260.669 336 258.346 336 256C336 253.653 335.898 251.33 335.7 249.035C333.812 249.245 332.095 247.907 331.846 246.015C331.596 244.12 332.912 242.381 334.794 242.098C333.982 237.462 332.771 232.963 331.197 228.639C329.424 229.341 327.409 228.493 326.677 226.725C325.945 224.957 326.769 222.933 328.518 222.175C326.539 217.94 324.2 213.908 321.541 210.117C320.01 211.244 317.854 210.944 316.691 209.43C315.53 207.916 315.797 205.757 317.278 204.569C314.287 201.009 310.991 197.712 307.43 194.721C306.242 196.202 304.084 196.47 302.57 195.309C301.056 194.146 300.755 191.989 301.882 190.458C298.091 187.799 294.059 185.46 289.824 183.481C289.066 185.231 287.043 186.055 285.275 185.323C283.507 184.591 282.658 182.575 283.36 180.802C279.036 179.228 274.537 178.017 269.901 177.205C269.619 179.087 267.88 180.404 265.985 180.154C264.093 179.905 262.754 178.187 262.964 176.299C260.669 176.101 258.346 176 256 176L259 224.141ZM256 176C253.653 176 251.33 176.101 249.035 176.299C249.245 178.187 247.907 179.905 246.015 180.154C244.12 180.404 242.38 179.087 242.098 177.205C237.462 178.017 232.963 179.228 228.639 180.802C229.341 182.575 228.493 184.591 226.725 185.323C224.956 186.056 222.933 185.231 222.175 183.481C217.94 185.46 213.908 187.799 210.117 190.458C211.244 191.989 210.945 194.146 209.43 195.309C207.916 196.47 205.757 196.202 204.569 194.721C201.009 197.712 197.712 201.009 194.721 204.569C196.202 205.757 196.47 207.916 195.309 209.43C194.146 210.945 191.989 211.244 190.458 210.117C187.799 213.908 185.46 217.94 183.481 222.175C185.231 222.933 186.056 224.956 185.323 226.725C184.591 228.493 182.575 229.341 180.802 228.639C179.228 232.963 178.017 237.462 177.205 242.098C179.087 242.38 180.404 244.12 180.154 246.015C179.905 247.907 178.188 249.245 176.299 249.035C176.101 251.33 176 253.653 176 256C176 258.346 176.101 260.669 176.299 262.964C178.187 262.754 179.905 264.093 180.154 265.985C180.404 267.88 179.087 269.619 177.205 269.901C178.017 274.537 179.228 279.036 180.802 283.36C182.575 282.658 184.591 283.507 185.323 285.275C186.056 287.043 185.231 289.066 183.481 289.824C185.46 294.059 187.799 298.091 190.458 301.882C191.989 300.755 194.146 301.056 195.309 302.57C196.47 304.084 196.202 306.242 194.721 307.43C197.712 310.991 201.009 314.287 204.569 317.278C205.757 315.797 207.916 315.53 209.43 316.691C210.944 317.854 211.244 320.01 210.117 321.541C213.908 324.2 217.94 326.539 222.175 328.518C222.933 326.768 224.957 325.945 226.725 326.677C228.493 327.409 229.341 329.424 228.639 331.197C232.963 332.771 237.462 333.982 242.098 334.794C242.381 332.912 244.12 331.596 246.015 331.846C247.907 332.095 249.245 333.812 249.035 335.7C251.33 335.898 253.653 336 256 336L253 287.859L255 271.968C254.263 271.922 253.539 271.828 252.832 271.686L250.652 287.55L235.295 333.274L244.856 285.997L250.899 271.169C250.204 270.935 249.529 270.654 248.88 270.331L242.669 285.091L216 325.282L237.473 282.091L247.148 269.329C246.54 268.925 245.962 268.48 245.416 267.998L235.594 280.649L199.432 312.568L231.351 276.406L244.001 266.583C243.519 266.037 243.074 265.459 242.67 264.851L229.909 274.527L186.718 296L226.909 269.332L241.668 263.119C241.345 262.47 241.064 261.795 240.83 261.1L226.003 267.144L178.726 276.705L224.45 261.348L240.313 259.167C240.172 258.46 240.077 257.736 240.031 256.999L224.141 259L176 256L224.141 253L240.031 255C240.077 254.263 240.171 253.539 240.313 252.832L224.45 250.652L178.726 235.295L226.003 244.856L240.83 250.899C241.064 250.204 241.345 249.529 241.668 248.88L226.909 242.669L186.718 216L229.909 237.473L242.67 247.148C243.074 246.54 243.519 245.962 244.001 245.416L231.351 235.594L199.432 199.432L235.594 231.351L245.416 244.001C245.962 243.519 246.54 243.074 247.148 242.67L237.473 229.909L216 186.718L242.668 226.909L248.88 241.668C249.529 241.345 250.204 241.064 250.899 240.83L244.856 226.003L235.295 178.726L250.652 224.45L252.832 240.313C253.539 240.171 254.263 240.077 255 240.031L253 224.141L256 176Z" fill="#07038D"/>
</g>
<defs>
<clipPath id="clip0_2183_1866">
<rect width="512" height="512" fill="white"/>
</clipPath>
</defs>
</svg>
