<svg width="512" height="512" viewBox="0 0 512 512" fill="none" xmlns="http://www.w3.org/2000/svg">
<g clip-path="url(#clip0_2183_2202)">
<rect width="512" height="512" fill="#EF3340"/>
<path d="M218.544 172.597C243.804 172.597 266.476 183.516 281.974 200.827C270.096 191.839 255.232 186.497 239.102 186.497C200.175 186.497 168.618 217.614 168.618 255.999C168.618 294.384 200.175 325.502 239.102 325.502C255.232 325.502 270.096 320.159 281.974 311.171C266.476 328.483 243.804 339.402 218.544 339.403C171.831 339.403 133.962 302.062 133.962 255.999C133.963 209.937 171.832 172.597 218.544 172.597ZM346.133 231.92L373.398 219.14L360.438 246.026L388.881 255.999L360.438 265.974L373.398 292.859L346.133 280.079L336.018 308.126L325.904 280.079L298.638 292.859L311.599 265.974L283.155 255.999L311.599 246.026L298.638 219.14L325.904 231.92L336.018 203.872L346.133 231.92Z" fill="white"/>
<rect width="512" height="144" fill="#00B5E2"/>
<rect y="368" width="512" height="144" fill="#509E2F"/>
</g>
<defs>
<clipPath id="clip0_2183_2202">
<rect width="512" height="512" fill="white"/>
</clipPath>
</defs>
</svg>
