<svg width="512" height="512" viewBox="0 0 512 512" fill="none" xmlns="http://www.w3.org/2000/svg">
<g clip-path="url(#clip0_2183_2213)">
<rect width="512" height="512" fill="#CE1720"/>
<rect y="352" width="512" height="160" fill="#007C30"/>
<rect width="140" height="512" fill="#CE1720"/>
<path d="M11.3857 519.148H16.5713V529.519H23.7012V538.592H29.5342V547.667H1.01562V543.778H11.3857V532.111H1.01562V510.722H11.3857V519.148ZM76.2012 519.148H81.3857V529.519H89.1641V538.592H94.3496V547.667H73.6084V526.926H68.4229V547.667H47.6826V538.592H52.8682V529.519H60.6455V519.148H65.8311V510.722H76.2012V519.148ZM141.016 532.111H130.646V543.778H141.016V547.667H112.497V538.592H118.331V529.519H125.46V519.148H130.646V510.722H141.016V532.111ZM41.2012 488.038H46.3857V497.759H51.5713V510.722H46.3857V520.445H41.2012V528.222H36.0156V520.445H30.8311V510.722H25.6455V497.759H30.8311V488.038H36.0156V480.259H41.2012V488.038ZM106.016 488.038H111.201V497.759H116.387V510.722H111.201V520.445H106.016V528.222H100.831V520.445H95.6455V510.722H90.46V497.759H95.6455V488.038H100.831V480.259H106.016V488.038ZM35.3682 510.074H41.8496V498.408H35.3682V510.074ZM100.183 510.074H106.664V498.408H100.183V510.074ZM11.3857 377.204H15.2754V385.629H19.1641V394.704H24.3496V403.778H28.8857V410.259H34.7197V419.333H42.4971V410.259H48.3311V403.778H53.5156V394.704H58.7012V385.629H63.2383V377.204H67.127V370.075H74.9043V377.204H78.7939V385.629H83.3311V394.704H88.5156V403.778H93.7012V410.259H99.5342V419.333H107.312V410.259H113.146V403.778H117.683V394.704H122.868V385.629H126.757V377.204H130.646V366.185H141.016V394.704H130.646V407.667H141.016V429.056H130.646V419.982H124.164V410.908H117.683V419.982H111.201V429.056H106.016V440.722H111.201V449.796H117.683V458.871H124.164V449.796H130.646V440.722H141.016V467.296H130.646V479.611H141.016V497.759H130.646V489.333H125.46V478.963H118.331V470.538H112.497V460.815H107.96V453.038H98.8857V460.815H94.3496V470.538H88.5156V478.963H81.3857V489.333H76.2012V497.759H65.8311V489.333H60.6455V478.963H53.5156V470.538H47.6826V460.815H43.1455V453.038H34.0713V460.815H29.5342V470.538H23.7012V478.963H16.5713V489.333H11.3857V497.759H1.01562V479.611H11.3857V467.296H1.01562V440.722H11.3857V449.796H17.8682V458.871H24.3496V449.796H30.8311V440.722H36.0156V429.056H30.8311V419.982H24.3496V410.908H17.8682V419.982H11.3857V429.056H1.01562V407.667H11.3857V394.704H1.01562V366.185H11.3857V377.204ZM68.4229 478.315H73.6084V460.815H68.4229V478.315ZM52.8682 419.982H46.3857V429.056H41.2012V440.722H46.3857V449.796H52.8682V458.871H59.3496V449.796H65.8311V440.722H76.2012V449.796H82.6826V458.871H89.1641V449.796H95.6455V440.722H100.831V429.056H95.6455V419.982H89.1641V410.908H82.6826V419.982H76.2012V429.056H65.8311V419.982H59.3496V410.908H52.8682V419.982ZM23.7012 440.722H18.5156V429.056H23.7012V440.722ZM58.7012 440.722H53.5156V429.056H58.7012V440.722ZM88.5156 440.722H83.3311V429.056H88.5156V440.722ZM123.516 440.722H118.331V429.056H123.516V440.722ZM68.4229 410.908H73.6084V393.408H68.4229V410.908ZM30.1826 288.408H36.0156V295.538H40.5527V303.315H46.3857V312.389H50.2754V320.815H54.8125V329.889H59.9971V342.204H52.8682V353.222H44.4414V359.704H30.8311V349.982H38.6084V341.556H33.4229V331.185H27.5898V321.463H19.8125V331.185H13.9785V341.556H10.0898V349.982H1.01562V331.833H11.3857V318.871H1.01562V303.963H11.3857V298.129H15.9229V289.056H21.7568V279.333H30.1826V288.408ZM120.275 289.056H126.108V298.129H130.646V303.963H141.016V318.871H130.646V331.833H141.016V349.982H131.941V341.556H128.053V331.185H122.22V321.463H114.441V331.185H108.608V341.556H103.423V349.982H111.201V359.704H97.5898V353.222H89.1641V342.204H82.0342V329.889H87.2197V320.815H91.7568V312.389H95.6455V303.315H101.479V295.538H106.016V288.408H111.85V279.333H120.275V289.056ZM75.5527 201.556H78.1455V210.629H83.3311V219.704H87.2197V226.185H90.46V232.667H96.9414V239.796H106.016V272.204H96.9414V279.333H90.46V285.815H87.2197V292.296H83.3311V301.371H78.1455V310.445H75.5527V318.871H66.4785V310.445H63.8857V301.371H58.7012V292.296H54.8125V285.815H51.5713V279.333H45.0898V272.204H36.0156V239.796H45.0898V232.667H51.5713V226.185H54.8125V219.704H58.7012V210.629H63.8857V201.556H66.4785V193.129H75.5527V201.556ZM68.4229 300.074H73.6084V288.408H68.4229V300.074ZM11.3857 237.852H15.9229V243.038H21.1084V252.111H25.6455V259.889H21.1084V268.963H15.9229V274.148H11.3857V283.222H1.01562V228.778H11.3857V237.852ZM141.016 283.222H130.646V274.148H126.108V268.963H120.923V259.889H116.386V252.111H120.923V243.038H126.108V237.852H130.646V228.778H141.016V283.222ZM58.0527 245.629H63.2383V251.463H66.4785V260.538H63.2383V266.371H58.0527V282.574H63.2383V276.092H68.4229V266.371H73.6084V276.092H78.7939V282.574H83.9785V266.371H78.7939V260.538H75.5527V251.463H78.7939V245.629H83.9785V229.426H78.7939V235.908H73.6084V245.629H68.4229V235.908H63.2383V229.426H58.0527V245.629ZM46.3857 261.833H51.5713V250.167H46.3857V261.833ZM90.46 261.833H95.6455V250.167H90.46V261.833ZM44.4414 158.778H52.8682V169.796H59.9971V182.111H54.8125V191.185H50.2754V199.611H46.3867V208.685H40.5527V216.463H36.0156V223.592H30.1826V232.667H21.7568V222.945H15.9229V213.871H11.3867V208.038H1.01562V193.129H11.3867V180.167H1.01562V162.019H10.0898V170.445H13.9785V180.815H19.8125V190.538H27.5898V180.815H33.4229V170.445H38.6084V162.019H30.8311V152.296H44.4414V158.778ZM111.201 162.019H103.423V170.445H108.608V180.815H114.441V190.538H122.22V180.815H128.053V170.445H131.941V162.019H141.016V180.167H130.646V193.129H141.016V208.038H130.646V213.871H126.108V222.945H120.275V232.667H111.85V223.592H106.016V216.463H101.479V208.685H95.6455V199.611H91.7568V191.185H87.2197V182.111H82.0342V169.796H89.1641V158.778H97.5898V152.296H111.201V162.019ZM68.4229 223.592H73.6084V211.926H68.4229V223.592ZM11.3867 22.6665H16.5713V33.0376H23.7012V41.4634H29.5342V51.1851H34.0713V58.9634H43.1455V51.1851H47.6826V41.4634H53.5156V33.0376H60.6455V22.6665H65.8311V14.2407H76.2012V22.6665H81.3867V33.0376H88.5156V41.4634H94.3496V51.1851H98.8867V58.9634H107.96V51.1851H112.497V41.4634H118.331V33.0376H125.46V22.6665H130.646V14.2407H141.016V32.3892H130.646V44.7036H141.016V71.2778H130.646V62.2036H124.164V53.1294H117.683V62.2036H111.201V71.2778H106.016V82.9448H111.201V92.019H117.683V101.092H124.164V92.019H130.646V82.9448H141.016V104.333H130.646V117.296H141.016V145.815H130.646V134.796H126.757V126.371H122.868V117.296H117.683V108.222H113.146V101.741H107.312V92.6665H99.5342V101.741H93.7012V108.222H88.5156V117.296H83.3311V126.371H78.7939V134.796H74.9043V141.926H67.127V134.796H63.2383V126.371H58.7012V117.296H53.5156V108.222H48.3311V101.741H42.4971V92.6665H34.7197V101.741H28.8867V108.222H24.3496V117.296H19.1641V126.371H15.2754V134.796H11.3867V145.815H1.01562V117.296H11.3867V104.333H1.01562V82.9448H11.3867V92.019H17.8682V101.092H24.3496V92.019H30.8311V82.9448H36.0156V71.2778H30.8311V62.2036H24.3496V53.1294H17.8682V62.2036H11.3867V71.2778H1.01562V44.7036H11.3867V32.3892H1.01562V14.2407H11.3867V22.6665ZM68.4229 118.592H73.6084V101.092H68.4229V118.592ZM52.8682 62.2036H46.3867V71.2778H41.2012V82.9448H46.3867V92.019H52.8682V101.092H59.3496V92.019H65.8311V82.9448H76.2012V92.019H82.6826V101.092H89.1641V92.019H95.6455V82.9448H100.831V71.2778H95.6455V62.2036H89.1641V53.1294H82.6826V62.2036H76.2012V71.2778H65.8311V62.2036H59.3496V53.1294H52.8682V62.2036ZM23.7012 82.9448H18.5156V71.2778H23.7012V82.9448ZM58.7012 82.9448H53.5156V71.2778H58.7012V82.9448ZM88.5156 82.9448H83.3311V71.2778H88.5156V82.9448ZM123.516 82.9448H118.331V71.2778H123.516V82.9448ZM68.4229 51.1851H73.6084V33.6851H68.4229V51.1851ZM41.2012 -8.44385H46.3867V1.27783H51.5713V14.2407H46.3867V23.9634H41.2012V31.7407H36.0156V23.9634H30.8311V14.2407H25.6455V1.27783H30.8311V-8.44385H36.0156V-16.2222H41.2012V-8.44385ZM106.016 -8.44385H111.201V1.27783H116.387V14.2407H111.201V23.9634H106.016V31.7407H100.831V23.9634H95.6455V14.2407H90.46V1.27783H95.6455V-8.44385H100.831V-16.2222H106.016V-8.44385ZM35.3682 13.5923H41.8496V1.92627H35.3682V13.5923ZM100.183 13.5923H106.664V1.92627H100.183V13.5923ZM29.5342 -26.5923H23.7012V-17.5181H16.5713V-7.14795H11.3867V1.27783H1.01562V-20.1108H11.3867V-31.7778H1.01562V-35.6665H29.5342V-26.5923ZM68.4229 -14.9253H73.6084V-35.6665H94.3496V-26.5923H89.1641V-17.5181H81.3867V-7.14795H76.2012V1.27783H65.8311V-7.14795H60.6455V-17.5181H52.8682V-26.5923H47.6826V-35.6665H68.4229V-14.9253ZM141.016 -31.7778H130.646V-20.1108H141.016V1.27783H130.646V-7.14795H125.46V-17.5181H118.331V-26.5923H112.497V-35.6665H141.016V-31.7778Z" fill="white"/>
</g>
<defs>
<clipPath id="clip0_2183_2213">
<rect width="512" height="512" fill="white"/>
</clipPath>
</defs>
</svg>
