<svg width="512" height="512" viewBox="0 0 512 512" fill="none" xmlns="http://www.w3.org/2000/svg">
<g clip-path="url(#clip0_2183_2975)">
<rect width="512" height="512" fill="#002395"/>
<path d="M-83.64 0H428.36V512L-83.64 0Z" fill="#FECB00"/>
<path d="M347.12 491.209H382.459L353.869 511.98L364.79 545.591L336.199 524.818L307.61 545.591L318.53 511.98L289.94 491.209H325.28L336.2 457.6L347.12 491.209ZM283.12 427.209H318.459L289.869 447.98L300.79 481.591L272.199 460.818L243.61 481.591L254.53 447.98L225.94 427.209H261.28L272.2 393.6L283.12 427.209ZM219.12 363.209H254.459L225.869 383.98L236.79 417.591L208.199 396.818L179.61 417.591L190.53 383.98L161.94 363.209H197.28L208.2 329.6L219.12 363.209ZM155.12 299.209H190.459L161.869 319.98L172.79 353.591L144.199 332.818L115.61 353.591L126.53 319.98L97.9404 299.209H133.28L144.2 265.6L155.12 299.209ZM91.1201 235.209H126.459L97.8691 255.98L108.79 289.591L80.1992 268.818L51.6104 289.591L62.5303 255.98L33.9404 235.209H69.2803L80.2002 201.6L91.1201 235.209ZM27.1201 171.209H62.459L33.8691 191.98L44.79 225.591L16.1992 204.818L-12.3896 225.591L-1.46973 191.98L-30.0596 171.209H5.28027L16.2002 137.6L27.1201 171.209Z" fill="white"/>
</g>
<defs>
<clipPath id="clip0_2183_2975">
<rect width="512" height="512" fill="white"/>
</clipPath>
</defs>
</svg>
