<svg width="512" height="512" viewBox="0 0 512 512" fill="none" xmlns="http://www.w3.org/2000/svg">
<g clip-path="url(#clip0_2183_3688)">
<rect width="512" height="512" fill="white"/>
<rect y="256" width="512" height="256" fill="#CE1126"/>
<rect width="512" height="256" fill="#0038A8"/>
<path d="M344 256L0 0V512L344 256Z" fill="white"/>
<path d="M65.0117 373.188L78.4375 372.054L68.6104 381.271L73.8379 393.688L62.0371 387.191L51.8418 396L54.373 382.766L42.8467 375.795L56.2139 374.113L59.2822 360.995L65.0117 373.188ZM144.667 188.903L142.483 222.207C143.225 222.255 143.96 222.326 144.688 222.421L148.618 192.576L152.174 196.136L146.874 222.78C151.319 223.659 155.45 225.406 159.085 227.84L174.18 205.251L179.211 205.248L160.883 229.133C161.469 229.583 162.041 230.052 162.596 230.539L184.602 205.445H190.823V211.666L165.729 233.672C166.216 234.227 166.684 234.798 167.135 235.384L191.02 217.057L191.017 222.089L168.428 237.183C170.861 240.817 172.608 244.948 173.487 249.393L200.132 244.094L203.691 247.65L173.847 251.579C173.942 252.307 174.012 253.042 174.06 253.784L207.364 251.602L211.764 256L207.364 260.398L174.06 258.215C174.012 258.957 173.942 259.692 173.847 260.42L203.691 264.35L200.132 267.906L173.487 262.606C172.608 267.051 170.861 271.182 168.428 274.816L191.017 289.911L191.02 294.943L167.135 276.615C166.684 277.201 166.216 277.772 165.729 278.327L190.823 300.334V306.555H184.602L162.596 281.46C162.041 281.947 161.469 282.416 160.883 282.866L179.211 306.752L174.18 306.749L159.085 284.159C155.45 286.593 151.319 288.34 146.874 289.219L152.174 315.864L148.618 319.424L144.688 289.578C143.96 289.673 143.225 289.744 142.483 289.792L144.667 323.097L140.269 327.495L135.869 323.097L138.053 289.792C137.311 289.744 136.575 289.673 135.847 289.578L131.918 319.424L128.362 315.864L133.661 289.219C129.217 288.34 125.086 286.593 121.451 284.159L106.356 306.749L101.325 306.752L119.652 282.866C119.066 282.416 118.494 281.948 117.939 281.461L95.9346 306.555H89.7139V300.334L114.807 278.328C114.319 277.773 113.851 277.202 113.4 276.615L89.5166 294.943L89.5195 289.911L112.107 274.816C109.674 271.182 107.927 267.051 107.048 262.606L80.4043 267.906L76.8447 264.35L106.688 260.42C106.594 259.692 106.523 258.957 106.476 258.215L73.1719 260.398L68.7734 256L73.1719 251.602L106.476 253.784C106.523 253.042 106.594 252.307 106.688 251.579L76.8447 247.65L80.4043 244.094L107.048 249.393C107.927 244.948 109.674 240.817 112.107 237.183L89.5195 222.089L89.5166 217.057L113.4 235.384C113.851 234.798 114.319 234.226 114.807 233.671L89.7139 211.666V205.445H95.9346L117.939 230.538C118.494 230.051 119.066 229.583 119.652 229.133L101.325 205.248L106.356 205.251L121.451 227.84C125.086 225.407 129.217 223.659 133.661 222.78L128.362 196.136L131.918 192.576L135.847 222.421C136.575 222.326 137.311 222.255 138.053 222.207L135.869 188.903L140.269 184.505L144.667 188.903ZM281.603 251.575L294.329 256L281.603 260.425L281.328 273.893L273.188 263.157L260.293 267.06L267.988 256L260.293 244.94L273.188 248.843L281.328 238.107L281.603 251.575ZM62.0371 124.809L73.8379 118.312L68.6104 130.729L78.4375 139.946L65.0117 138.812L59.2822 151.005L56.2139 137.887L42.8467 136.205L54.373 129.234L51.8418 116L62.0371 124.809Z" fill="#FCD116"/>
</g>
<defs>
<clipPath id="clip0_2183_3688">
<rect width="512" height="512" fill="white"/>
</clipPath>
</defs>
</svg>
