<svg width="512" height="512" viewBox="0 0 512 512" fill="none" xmlns="http://www.w3.org/2000/svg">
<rect width="512" height="512" fill="white"/>
<path d="M0 256H512V512H0V256Z" fill="#00B140"/>
<path d="M157.864 175.242C141.237 177.763 99.0995 181.721 82.6586 179.022L85.8714 186.761C113.081 184.241 139.158 193.061 163.345 183.881L157.864 175.242Z" fill="#C8102E" stroke="black" stroke-width="1.157"/>
<path d="M93.4304 194.14C83.0368 191.081 65.8419 173.263 63.008 162.465C71.1328 168.043 90.5952 175.242 97.5872 174.523C95.319 176.143 89.6499 180.462 85.3043 181.002C87.3843 184.962 91.351 190 93.4304 194.14Z" fill="#C8102E" stroke="black" stroke-width="1.157"/>
<path d="M126.875 188.74C129.9 192.879 145.772 191.17 153.801 186.132L151.628 182.621L150.022 185.591L147.472 182.802L146.811 187.211L142.371 183.971L141.613 187.841L138.78 184.422L137.741 188.652L133.583 185.411L131.978 189.821C130.724 188.333 130.022 186.458 129.993 184.512C128.387 185.141 127.064 187.211 126.875 188.74ZM128.198 175.333C128.198 176.412 129.52 179.563 131.978 180.461C132.072 179.112 130.371 175.962 131.411 174.614L133.583 176.593L134.245 172.813L137.174 174.883L137.457 170.474L140.48 172.453V167.594C135.567 168.043 129.52 173.713 128.198 175.333Z" fill="#C8102E" stroke="black" stroke-width="1.157"/>
<path d="M434.829 224.376C433.554 221.496 429.586 217.987 426.09 215.827C428.001 211.347 429.874 206.851 431.708 202.34C426.417 203.42 415.414 204.219 408.989 203.5C421.082 191.981 446.403 168.223 454.717 157.425C451.693 172.183 453.962 205.298 460.008 216.817C453.583 214.297 446.157 209.079 442.001 203.32C439.549 211.588 436.541 220.598 434.877 224.285" fill="#C8102E"/>
<path d="M434.829 224.376C433.554 221.496 429.586 217.987 426.09 215.827C428.001 211.347 429.874 206.851 431.708 202.34C426.417 203.42 415.414 204.219 408.989 203.5C421.082 191.981 446.403 168.223 454.717 157.425C451.693 172.183 453.962 205.298 460.008 216.817C453.583 214.297 446.157 209.079 442.001 203.32C439.549 211.588 436.541 220.598 434.877 224.285" stroke="black" stroke-width="1.157"/>
<path d="M198.869 161.205C199.624 164.984 199.813 167.864 202.648 168.943C205.482 170.024 211.717 172.182 215.686 178.662C210.962 177.403 204.348 175.603 203.781 179.923C203.242 184.034 205.135 183.912 208.316 184.601C212.473 185.501 216.442 190.36 216.631 196.84C213.228 194.861 208.505 193.241 205.482 193.241C202.458 193.241 201.608 193.78 200.853 197.379C199.605 203.316 201.893 203.679 204.726 204.038C207.561 204.398 213.608 207.098 213.985 216.997C210.773 214.296 204.329 212.792 200.38 212.138C198.207 211.779 197.829 212.858 197.546 216.637C197.261 220.417 197.734 221.677 201.513 222.756C205.293 223.837 209.639 226.536 210.773 232.295C207.182 230.676 201.513 231.215 199.813 231.935C198.112 232.655 197.191 236.678 200.781 244.415C208.509 241.923 216.484 240.273 224.566 239.494C242.426 237.702 238.172 225.816 238.172 207.098C238.172 188.38 277.475 167.504 337.185 134.388C322.824 169.303 342.477 166.063 353.435 162.105C364.395 158.145 390.094 148.067 410.124 139.788C382.535 157.425 368.552 176.143 392.739 184.421C361.75 193.78 347.389 219.336 364.395 235.535C352.798 231.622 336.726 239.004 329.995 249.283C342.088 248.202 365.528 251.013 379.889 254.972C393.564 258.741 416.139 254.327 418.266 242.711C418.378 242.125 418.436 241.53 418.438 240.934C418.438 236.885 417.395 233.827 415.798 231.599C412.286 226.697 406.131 225.636 402.754 225.636C397.841 225.636 392.739 227.615 392.739 231.035C392.739 234.455 395.763 235.894 401.809 235.894C405.115 235.894 410.213 236.442 415.798 231.599C417.395 233.827 418.438 236.885 418.438 240.934C418.433 241.523 418.373 242.109 418.259 242.686C412.972 245.54 407.06 247.041 401.052 247.053C388.959 247.053 377.623 242.373 377.623 229.775C377.623 217.178 391.227 209.978 402.186 209.978C417.303 209.978 438.466 215.738 438.466 238.773C438.466 267.93 398.33 281.566 374.52 281.566C378.511 284.757 383.007 287.727 387.825 289.526C404.689 295.826 419.571 303.565 424.862 315.444C418.438 315.444 407.855 310.405 402.942 305.365C416.548 321.203 400.046 350.337 401.809 360.078C403.697 370.515 416.548 364.037 416.548 372.136C416.548 379.334 408.989 378.075 406.155 374.835C403.32 371.596 394.234 368.875 389.526 372.136C385.37 375.016 378.946 376.455 376.111 373.576C373.277 370.696 362.884 371.775 358.538 375.736C354.193 379.694 348.122 380.004 346.255 376.996C344.257 373.775 344.768 369.858 352.852 368.502C349.261 364.902 338.319 371.056 336.43 364.218C335.071 359.303 337.941 357.018 347.389 357.737C346.444 355.398 339.453 354.319 340.397 349.459C341.342 344.599 346.803 341.591 353.247 348.739C370.442 367.816 378.378 357.198 384.235 348.92C382.347 344.6 384.425 341.72 388.015 339.021C386.125 335.961 387.258 331.642 388.581 328.762C385.747 327.143 384.047 319.943 387.071 317.423C384.613 317.423 380.834 314.723 380.834 310.044C379.194 311.041 377.272 311.476 375.363 311.281C373.453 311.086 371.659 310.273 370.253 308.965C366.663 310.945 357.215 311.304 353.057 306.984C347.389 309.144 337.373 308.604 334.73 304.465C329.741 305.725 320.557 301.585 318.668 297.085C315.753 296.874 312.923 296.014 310.383 294.568C302.826 299.967 292.591 310.405 302.795 318.324C313 326.243 334.162 319.763 334.54 339.56C329.627 335.601 320.557 336.68 317.533 332.721C307.331 347.119 292.592 360.257 270.861 365.656C274.073 367.636 279.932 367.816 282.198 367.636C286.91 367.262 290.89 371.056 287.301 375.555C283.711 380.056 276.341 376.275 271.995 372.496C265.741 367.056 261.603 370.156 259.901 371.416C258.202 372.675 255.933 373.397 252.91 370.516C249.887 367.636 247.052 369.617 245.541 371.416C243.085 374.341 237.416 367.636 228.346 375.555C223.985 379.363 213.608 374.476 217.764 368.896C213.418 369.977 205.732 363.964 212.095 358.099C217.954 352.7 229.101 365.117 238.172 361.517C236.133 359.046 231.885 354.47 223.055 353.419C218.52 352.879 217.717 347.854 219.842 344.239C222.488 339.74 230.614 342.801 236.093 349.82C240.41 355.349 246.108 355.398 251.965 354.319C256.081 351.706 262.453 351.619 265.288 352.518C265.288 349.82 269.727 347.479 273.128 347.479C272.94 343.88 274.073 340.641 279.553 339.74C280.01 339.666 280.483 339.592 280.97 339.548C279.084 339.635 277.202 339.308 275.455 338.592C273.708 337.876 272.139 336.788 270.856 335.402C263.286 337.249 254.901 333.69 253.669 326.882C241.704 326.048 240.515 313.975 243.462 310.045C243.703 309.72 243.973 309.418 244.269 309.143C240.707 311.821 236.157 313.06 230.53 311.11C227.947 314.621 224.351 317.257 220.225 318.663C216.1 320.07 211.642 320.179 207.453 318.977C205.074 322.572 201.45 325.162 197.278 326.248C197.63 330.611 196.689 335.553 190.933 341.36C192.443 333.441 181.862 330.922 184.131 317.964C183.373 327.322 154.841 342.801 150.305 363.317C154.463 365.117 158.999 366.376 161.833 365.837C168.961 364.48 171.281 371.597 169.202 374.476C167.123 377.356 161.266 378.794 158.81 376.275C156.353 373.756 151.251 377.175 148.794 372.496C146.339 367.816 139.535 369.437 136.701 372.496C133.868 375.555 124.419 368.536 117.617 375.555C115.072 378.181 106.469 380.954 101.366 379.516C96.2644 378.076 93.241 373.036 94.9415 370.337C91.5405 367.276 91.4932 363.529 94.7533 360.257C93.5245 355.668 97.5309 346.599 104.296 350.179C108.547 352.428 123.616 363.048 136.749 350.899C148.136 340.234 141.502 331.689 148.794 330.561C147.907 326.232 150.685 320.844 153.708 319.763C152.829 317.967 152.67 315.903 153.262 313.994C151.545 313.861 149.854 313.49 148.239 312.893C142.576 314.497 136.728 315.354 130.844 315.444C130.844 319.763 125.553 330.202 121.018 335.242C119.507 295.647 81.7152 291.686 76.6125 260.192C76.4244 264.87 71.321 269.55 70.7552 273.509C70.1882 277.469 67.7319 280.528 63.1968 278.73C58.6624 276.929 57.5277 269.37 62.0634 268.291C66.5991 267.21 65.7485 260.011 68.5824 259.111C71.4164 258.211 71.8887 255.331 70.7552 251.732C69.6205 248.133 71.321 243.813 72.4557 241.114C73.5885 238.413 71.8887 233.914 67.92 232.295C63.9533 230.676 62.6304 226.716 64.1415 223.297C59.9847 220.417 61.17 214.194 66.7866 213.038C73.7786 211.598 73.5892 222.575 77.5578 223.837C76.9914 221.677 77.7466 217.537 79.4477 214.837C77.1796 210.157 80.0148 206.379 84.5485 206.379C92.4858 206.379 89.84 218.977 87.9501 222.937C90.5952 219.336 94.7533 215.197 97.9648 218.078C101.178 220.956 100.653 226.97 97.2096 229.595C94.3744 231.754 88.5172 235.174 90.2176 238.954C93.6186 244.714 95.6967 251.552 96.0762 260.371C100.799 263.791 103.823 267.75 103.823 270.989C106.94 271.17 112.911 273.633 113.743 277.11C117.522 276.748 123.165 277.471 124.796 280.799C126.026 280.168 129.304 279.958 131.289 280.138C131.296 277.326 132.273 274.604 134.056 272.43C127.631 265.59 127.82 254.793 134.433 250.472C132.55 245.989 133.301 237.694 139.535 233.374C139.401 228.874 140.669 222.937 146.904 219.157C145.96 214.297 149.173 207.639 153.141 207.279C152.195 202.599 152.91 196.823 158.389 194.123C157.75 193.453 157.256 192.659 156.938 191.791C156.619 190.922 156.482 189.997 156.536 189.073C146.924 191.053 143.167 196.655 140.102 201.88C139.725 199.72 139.157 196.84 137.834 194.68C137.834 200.259 133.489 202.239 133.301 209.978C130.088 206.739 128.955 201.519 129.142 197.919C129.293 195.039 124.23 192.341 125.741 187.302C133.3 193.961 148.606 179.382 161.833 184.062C148.794 157.965 139.347 170.563 132.733 175.064C126.119 179.563 121.395 172.904 122.152 168.584C113.27 166.604 102.689 166.964 91.1629 169.124C99.6653 158.504 119.695 153.826 134.433 154.905C140.858 143.567 148.606 145.187 156.164 146.266C161.105 146.973 166.876 146.989 172.603 146.714C176.193 137.175 197.167 136.189 199.246 128.629C201.137 130.069 199.989 135.485 198.099 140.163C203.562 138.605 208.253 136.942 209.827 133.669C210.773 136.728 209.261 145.007 207.181 147.526C209.337 146.952 211.567 146.709 213.796 146.806C207.181 150.406 198.869 155.805 197.546 156.705C196.223 157.605 195.466 159.404 198.869 161.205C195.089 161.925 184.508 165.525 180.162 162.645Z" fill="#C8102E"/>
<path d="M198.869 161.205C199.624 164.984 199.813 167.864 202.648 168.943C205.482 170.024 211.717 172.182 215.686 178.662C210.962 177.403 204.348 175.603 203.781 179.923C203.242 184.034 205.135 183.912 208.316 184.601C212.473 185.501 216.442 190.36 216.631 196.84C213.228 194.861 208.505 193.241 205.482 193.241C202.458 193.241 201.608 193.78 200.853 197.379C199.605 203.316 201.893 203.679 204.726 204.038C207.561 204.398 213.608 207.098 213.985 216.997C210.773 214.296 204.329 212.792 200.38 212.138C198.207 211.779 197.829 212.858 197.546 216.637C197.261 220.417 197.734 221.677 201.513 222.756C205.293 223.837 209.639 226.536 210.773 232.295C207.182 230.676 201.513 231.215 199.813 231.935C198.112 232.655 197.191 236.678 200.781 244.415C208.509 241.923 216.484 240.273 224.566 239.494C242.426 237.702 238.172 225.816 238.172 207.098C238.172 188.38 277.475 167.504 337.185 134.388C322.824 169.303 342.477 166.063 353.435 162.105C364.395 158.145 390.094 148.067 410.124 139.788C382.535 157.425 368.552 176.143 392.739 184.421C361.75 193.78 347.389 219.336 364.395 235.535C352.798 231.622 336.726 239.004 329.995 249.283C342.088 248.202 365.528 251.013 379.889 254.972C393.564 258.741 416.139 254.327 418.266 242.711C418.378 242.125 418.436 241.53 418.438 240.934M198.869 161.205C195.466 159.404 196.223 157.605 197.546 156.705C198.869 155.805 207.181 150.406 213.796 146.806C211.567 146.709 209.337 146.952 207.181 147.526C209.261 145.007 210.773 136.728 209.827 133.669C208.253 136.942 203.562 138.605 198.099 140.163C199.989 135.485 201.137 130.069 199.246 128.629C197.167 136.189 176.193 137.175 172.603 146.714C166.876 146.989 161.105 146.973 156.164 146.266C148.606 145.187 140.858 143.567 134.433 154.905C119.695 153.826 99.6653 158.504 91.1629 169.124C102.689 166.964 113.27 166.604 122.152 168.584C121.395 172.904 126.119 179.563 132.733 175.064C139.347 170.563 148.794 157.965 161.833 184.062C148.606 179.382 133.3 193.961 125.741 187.302C124.23 192.341 129.293 195.039 129.142 197.919C128.955 201.519 130.088 206.739 133.301 209.978C133.489 202.239 137.834 200.259 137.834 194.68C139.157 196.84 139.725 199.72 140.102 201.88C143.167 196.655 146.924 191.053 156.536 189.073C156.482 189.997 156.619 190.922 156.938 191.791C157.256 192.659 157.75 193.453 158.389 194.123C152.91 196.823 152.195 202.599 153.141 207.279C149.173 207.639 145.96 214.297 146.904 219.157C140.669 222.937 139.401 228.874 139.535 233.374C133.301 237.694 132.55 245.989 134.433 250.472C127.82 254.793 127.631 265.59 134.056 272.43C132.273 274.604 131.296 277.326 131.289 280.138C129.304 279.958 126.026 280.168 124.796 280.799C123.165 277.471 117.522 276.748 113.743 277.11C112.911 273.633 106.94 271.17 103.823 270.989C103.823 267.75 100.799 263.791 96.0762 260.371C95.6967 251.552 93.6186 244.714 90.2176 238.954C88.5172 235.174 94.3744 231.754 97.2096 229.595C100.653 226.97 101.178 220.956 97.9648 218.078C94.7533 215.197 90.5952 219.336 87.9501 222.937C89.84 218.977 92.4858 206.379 84.5485 206.379C80.0148 206.379 77.1796 210.157 79.4477 214.837C77.7466 217.537 76.9914 221.677 77.5578 223.837C73.5892 222.575 73.7786 211.598 66.7866 213.038C61.17 214.194 59.9847 220.417 64.1415 223.297C62.6304 226.716 63.9533 230.676 67.92 232.295C71.8887 233.914 73.5885 238.413 72.4557 241.114C71.321 243.813 69.6205 248.133 70.7552 251.732C71.8887 255.331 71.4164 258.211 68.5824 259.111C65.7485 260.011 66.5991 267.21 62.0634 268.291C57.5277 269.37 58.6624 276.929 63.1968 278.73C67.7319 280.528 70.1882 277.469 70.7552 273.509C71.321 269.55 76.4244 264.87 76.6125 260.192C81.7152 291.686 119.507 295.647 121.018 335.242C125.553 330.202 130.844 319.763 130.844 315.444C136.728 315.354 142.576 314.497 148.239 312.893C149.854 313.49 151.545 313.861 153.262 313.994C152.67 315.903 152.829 317.967 153.708 319.763C150.685 320.844 147.907 326.232 148.794 330.561C141.502 331.689 148.136 340.234 136.749 350.899C123.616 363.048 108.547 352.428 104.296 350.179C97.5309 346.599 93.5245 355.668 94.7533 360.257C91.4932 363.529 91.5405 367.276 94.9415 370.337C93.241 373.036 96.2644 378.076 101.366 379.516C106.469 380.954 115.072 378.181 117.617 375.555C124.419 368.536 133.868 375.555 136.701 372.496C139.535 369.437 146.339 367.816 148.794 372.496C151.251 377.175 156.353 373.756 158.81 376.275C161.266 378.794 167.123 377.356 169.202 374.476C171.281 371.597 168.961 364.48 161.833 365.837C158.999 366.376 154.463 365.117 150.305 363.317C154.841 342.801 183.373 327.322 184.131 317.964C181.862 330.922 192.443 333.441 190.933 341.36C196.689 335.553 197.63 330.611 197.278 326.248C201.45 325.162 205.074 322.572 207.453 318.977C211.642 320.179 216.1 320.07 220.225 318.663C224.351 317.257 227.947 314.621 230.53 311.11C236.157 313.06 240.707 311.821 244.269 309.143C243.973 309.418 243.703 309.72 243.462 310.045C240.515 313.975 241.704 326.048 253.669 326.882C254.901 333.69 263.286 337.249 270.856 335.402C272.139 336.788 273.708 337.876 275.455 338.592C277.202 339.308 279.084 339.635 280.97 339.548C280.483 339.592 280.01 339.666 279.553 339.74C274.073 340.641 272.94 343.88 273.128 347.479C269.727 347.479 265.288 349.82 265.288 352.518C262.453 351.619 256.081 351.706 251.965 354.319C246.108 355.398 240.41 355.349 236.093 349.82C230.614 342.801 222.488 339.74 219.842 344.239C217.717 347.854 218.52 352.879 223.055 353.419C231.885 354.47 236.133 359.046 238.172 361.517C229.101 365.117 217.954 352.7 212.095 358.099C205.732 363.964 213.418 369.977 217.764 368.896C213.608 374.476 223.985 379.363 228.346 375.555C237.416 367.636 243.085 374.341 245.541 371.416C247.052 369.617 249.887 367.636 252.91 370.516C255.933 373.397 258.202 372.675 259.901 371.416C261.603 370.156 265.741 367.056 271.995 372.496C276.341 376.275 283.711 380.056 287.301 375.555C290.89 371.056 286.91 367.262 282.198 367.636C279.932 367.816 274.073 367.636 270.861 365.656C292.592 360.257 307.331 347.119 317.533 332.721C320.557 336.68 329.627 335.601 334.54 339.56C334.162 319.763 313 326.243 302.795 318.324C292.591 310.405 302.826 299.967 310.383 294.568C312.923 296.014 315.753 296.874 318.668 297.085C320.557 301.585 329.741 305.725 334.73 304.465C337.373 308.604 347.389 309.144 353.057 306.984C357.215 311.304 366.663 310.945 370.253 308.965C371.659 310.273 373.453 311.086 375.363 311.281C377.272 311.476 379.194 311.041 380.834 310.044C380.834 314.723 384.613 317.423 387.071 317.423C384.047 319.943 385.747 327.143 388.581 328.762C387.258 331.642 386.125 335.961 388.015 339.021C384.425 341.72 382.347 344.6 384.235 348.92C378.378 357.198 370.442 367.816 353.247 348.739C346.803 341.591 341.342 344.599 340.397 349.459C339.453 354.319 346.444 355.398 347.389 357.737C337.941 357.018 335.071 359.303 336.43 364.218C338.319 371.056 349.261 364.902 352.852 368.502C344.768 369.858 344.257 373.775 346.255 376.996C348.122 380.004 354.193 379.694 358.538 375.736C362.884 371.775 373.277 370.696 376.111 373.576C378.946 376.455 385.37 375.016 389.526 372.136C394.234 368.875 403.32 371.596 406.155 374.835C408.989 378.075 416.548 379.334 416.548 372.136C416.548 364.037 403.697 370.515 401.809 360.078C400.046 350.337 416.548 321.203 402.942 305.365C407.855 310.405 418.438 315.444 424.862 315.444C419.571 303.565 404.689 295.826 387.825 289.526C383.007 287.727 378.511 284.757 374.52 281.566C398.33 281.566 438.466 267.93 438.466 238.773C438.466 215.738 417.303 209.978 402.186 209.978C391.227 209.978 377.623 217.178 377.623 229.775C377.623 242.373 388.959 247.053 401.052 247.053C407.06 247.041 412.972 245.54 418.259 242.686C418.373 242.109 418.433 241.523 418.438 240.934M198.869 161.205C195.089 161.925 184.508 165.525 180.162 162.645M418.438 240.934C418.438 236.885 417.395 233.827 415.798 231.599M418.438 240.934C418.438 236.885 417.395 233.827 415.798 231.599M415.798 231.599C412.286 226.697 406.131 225.636 402.754 225.636C397.841 225.636 392.739 227.615 392.739 231.035C392.739 234.455 395.763 235.894 401.809 235.894C405.115 235.894 410.213 236.442 415.798 231.599Z" stroke="black" stroke-width="1.157"/>
<path d="M55.2608 209.888C60.2675 206.468 67.1136 208.996 68.5824 214.027C69.5271 217.267 63.7875 219.672 63.2909 216.638C62.6304 212.588 59.8899 210.069 55.2608 209.888ZM74.8973 199.425C80.7245 197.516 86.5216 201.806 86.4141 207.028C86.3437 210.389 80.121 211.125 80.56 208.084C81.145 204.023 79.2787 200.862 74.8973 199.425ZM96.5677 208.638C102.125 211.17 103.098 218.102 99.1751 221.752C96.6496 224.101 91.6723 220.468 94.2259 218.591C97.6327 216.09 98.6311 212.588 96.5683 208.638H96.5677ZM52.3091 281.382C57.1584 285 64.112 282.753 65.8035 277.785C66.8915 274.587 61.2634 271.951 60.6336 274.964C59.7927 278.982 56.9421 281.389 52.3091 281.382ZM86.4378 354.162C88.4685 348.622 95.5962 346.937 99.8355 350.248C102.564 352.382 99.3216 357.493 97.0835 355.283C94.096 352.332 90.3328 351.772 86.4378 354.163V354.162ZM80.0621 369.064C80.4 363.205 88.6445 359.522 93.6819 361.583C96.9267 362.911 95.2999 368.68 92.5043 367.146C88.7763 365.102 83.1091 365.738 80.0621 369.064ZM89.0221 382.89C86.9082 377.378 91.3005 371.774 96.784 371.779C100.314 371.781 101.206 377.692 98.0032 377.333C93.7312 376.853 90.4474 378.692 89.0221 382.89ZM177.894 377.969C178.624 372.142 172.997 367.649 167.661 368.851C164.227 369.625 164.783 375.574 167.812 374.524C171.857 373.123 175.496 374.193 177.894 377.969ZM211.985 379.83C210.721 374.086 215.91 369.139 221.336 369.889C224.83 370.372 224.825 376.344 221.709 375.553C217.552 374.495 214.027 375.866 211.985 379.83ZM296.996 378.426C297.468 372.574 291.649 368.309 286.371 369.724C282.972 370.636 283.79 376.557 286.772 375.387C290.751 373.825 294.433 374.75 296.996 378.426ZM201.892 367.643C200.989 361.839 207.035 356.843 212.404 357.9C215.862 358.581 214.927 364.892 211.866 363.925C207.782 362.634 204.176 363.804 201.892 367.643ZM209.807 350.944C210.145 345.085 217.123 341.349 222.16 343.411C225.403 344.739 223.155 350.744 220.361 349.21C216.632 347.164 212.854 347.621 209.807 350.944ZM339.91 382.889C338.645 377.145 343.833 372.197 349.26 372.948C352.754 373.432 352.749 379.404 349.633 378.612C345.476 377.556 341.951 378.927 339.91 382.889ZM424.346 380.141C425.653 374.405 420.499 369.422 415.068 370.138C411.572 370.597 411.532 376.57 414.653 375.798C418.819 374.769 422.335 376.163 424.345 380.14L424.346 380.141ZM329.034 369.578C328.144 363.772 333.645 359.139 339.012 360.208C342.468 360.897 342.074 366.858 339.016 365.882C334.936 364.583 331.327 365.744 329.034 369.578ZM332.179 353.731C332.293 347.862 338.513 344.145 343.625 346.033C346.916 347.248 345.51 353.068 342.659 351.633C338.855 349.717 335.097 350.303 332.179 353.731H332.179Z" fill="#C8102E" stroke="black" stroke-width="1.157"/>
<path d="M353.435 162.105C339.074 166.785 283.521 187.661 273.318 190.9C263.115 194.14 257.823 194.861 251.777 208.178" stroke="black" stroke-width="1.157"/>
<path d="M326.604 146.626C290.325 168.943 260.847 188.381 252.533 206.739C244.218 225.096 244.785 236.254 224.566 239.494M166.368 274.049C175.438 263.971 194.333 251.733 212.474 251.013C208.937 256.488 205.901 262.271 203.403 268.291" stroke="black" stroke-width="1.157"/>
<path d="M203.025 275.129C207.561 269.369 218.897 257.132 226.078 252.092C222.677 261.812 217.009 284.847 220.032 300.685C221.92 285.568 230.235 262.172 238.927 248.852C245.352 263.611 254.044 284.488 254.044 297.807C255.933 281.969 252.155 254.612 246.486 242.734C261.98 250.292 281.254 271.889 289.569 285.208C283.9 266.49 264.626 243.813 254.421 236.613C279.742 240.933 316.401 256.412 330.005 267.931C307.708 248.133 280.497 232.655 261.224 225.455C291.457 222.937 348.145 229.416 364.395 235.535C340.587 222.575 291.457 215.737 261.98 217.537C292.969 204.938 348.145 190.541 392.739 184.422C358.726 186.22 314.888 194.86 269.916 204.579C289.946 191.62 351.924 167.144 366.663 162.824M175.438 153.466C178.137 144.972 189.149 142.717 198.099 140.163M190.365 159.766C182.808 159.225 181.464 156.667 185.642 153.826C188.287 152.026 193.766 149.146 197.546 148.786C196.601 148.607 193.956 147.886 192.633 147.707C196.601 146.088 203.215 143.747 205.482 141.587" stroke="black" stroke-width="1.157"/>
<path d="M181.578 146.087C178.687 146.337 175.652 146.567 172.603 146.714M162.022 188.381C160.179 188.472 158.344 188.704 156.536 189.073M131.289 280.138C131.216 285.314 133.078 290.331 136.511 294.206C139.535 297.446 158.054 298.526 158.809 292.406M134.056 272.429C140.48 279.268 161.265 275.129 161.265 270.09M134.434 250.472C136.701 255.872 160.888 260.732 161.265 254.431M139.535 233.374C139.725 239.674 161.751 243.765 162.4 239.134M146.904 219.157C147.85 224.016 162.4 228.696 164.479 226.536M153.14 207.279C153.829 210.692 164.289 213.757 167.88 212.498M158.388 194.123C160.532 196.602 164.692 198.908 171.848 200.079M122.152 168.584C122.341 164.804 126.119 164.264 125.553 160.485M161.833 184.062C163.155 186.041 166.556 190.18 166.934 193.241C168.824 191.801 170.335 188.74 170.902 187.302C172.707 188.803 174.023 190.808 174.681 193.06C175.438 190.9 176.761 187.121 176.949 184.781C179.655 185.381 182.181 186.615 184.318 188.38C184.696 186.041 183.563 182.981 181.673 181.721C183.761 181.808 185.839 181.375 187.719 180.461C186.397 178.662 184.318 176.322 182.24 175.242C184.131 174.702 186.774 172.544 187.909 171.644C186.208 170.924 183.185 169.303 181.295 168.404C182.428 167.324 183.373 165.165 183.941 163.544M130.465 154.816C129.237 154.816 128.67 157.515 130.938 159.226C132.569 160.456 132.544 165.524 129.615 166.784" stroke="black" stroke-width="1.157"/>
<path d="M174.682 193.061C166.368 211.417 158.715 246.243 161.36 271.439M170.335 305.905C170.335 309.685 176.572 310.405 176.381 301.406" stroke="black" stroke-width="1.157"/>
<path d="M175.816 305.905C176.571 309.144 182.996 309.864 181.673 300.325" stroke="black" stroke-width="1.157"/>
<path d="M173.171 308.425C173.548 315.444 178.271 315.084 178.649 308.425M181.862 303.565C183.751 307.885 189.042 305.724 187.532 296.186" stroke="black" stroke-width="1.157"/>
<path d="M187.72 300.325C189.799 303.926 194.711 301.046 195.278 294.747M163.155 280.349C159.913 283.731 156.193 291.323 160.698 298.526M160.698 298.526C163.345 302.755 170.62 305.096 171.375 302.575M160.698 298.526C157.77 298.977 153.462 304.956 155.597 310.673C157.109 314.723 165.801 317.154 167.123 314.184M249.509 303.565C258.957 304.645 271.429 298.526 272.184 286.287" stroke="black" stroke-width="1.157"/>
<path d="M271.05 292.047C276.341 295.286 287.301 296.367 291.835 288.087M275.964 294.567C271.05 305.365 266.598 316.839 276.719 325.162C285.032 332.002 291.208 321.806 301.284 332.002C304.307 335.061 300.717 340.82 270.294 357.559M124.797 280.799C126.781 284.848 126.592 292.767 122.813 291.687M94.9415 370.336C101.366 360.978 108.951 368.54 114.404 366.917" stroke="black" stroke-width="1.157"/>
<path d="M145.11 156.435C143.976 159.044 146.993 162.696 149.834 163.005C153.141 163.364 157.864 161.295 156.826 157.965" fill="white"/>
<path d="M145.11 156.435C143.976 159.044 146.993 162.696 149.834 163.005C153.141 163.364 157.864 161.295 156.826 157.965" stroke="black" stroke-width="1.157"/>
<path d="M141.803 156.705C143.503 154.455 163.345 161.564 171.281 156.525M77.5571 223.837C76.8019 225.455 77.0848 230.225 80.0147 232.835M217.764 368.896C219.276 367.098 224.871 365.28 229.007 366.287C233.07 367.276 240.344 365.928 245.068 364.127" stroke="black" stroke-width="1.157"/>
<path d="M174.682 193.061C172.792 210.698 177.044 237.785 187.909 249.843M168.975 208.719C169.286 224.414 173.321 243.047 181.298 253.304M164.608 225.823C166.179 237.7 169.715 249.643 175.302 257.4M161.869 243.85C163.757 250.899 166.414 257.367 169.864 262.232M160.896 260.908C161.958 263.176 163.218 265.347 164.66 267.395" stroke="black" stroke-width="1.157"/>
<path d="M174.304 204.038C173.738 209.618 170.147 213.937 166.934 216.457M174.682 211.779C174.115 217.357 170.147 222.396 164.95 224.826M175.816 219.517C175.249 225.096 169.58 231.935 163.155 234.994M177.327 227.255C176.761 232.836 169.391 241.293 161.889 244.008M179.69 234.994C177.516 242.554 168.824 251.373 161.172 253.352M183.091 242.734C182.523 248.312 170.902 259.651 160.888 262.891" stroke="black" stroke-width="1.157"/>
<path d="M113.743 277.11C114.971 282.238 110.908 286.918 108.83 285.658" stroke="black" stroke-width="1.157"/>
<path d="M135.379 294.927C115.727 290.967 101.116 284.37 93.0528 269.01C90.9728 265.051 96.4538 263.971 96.0762 260.371M90.2176 238.954C86.8167 233.195 86.0602 226.895 87.9501 222.937" stroke="black" stroke-width="1.157"/>
<path d="M103.823 270.989C103.823 274.23 99.76 278.368 98.3424 276.838M136.512 294.206C134.246 299.446 138.627 309.452 148.239 312.893M155.597 310.674C154.463 311.482 153.639 312.653 153.262 313.994M163.345 321.382C161.643 324.083 155.03 322.103 153.708 319.763M136.749 350.899C128.736 358.402 120.575 358.825 110.815 359.898C100.988 360.978 98.249 356.749 94.7533 360.257M200.757 294.566C201.893 299.606 201.513 304.645 196.979 312.205C194.476 316.375 196.847 320.874 197.278 326.248M244.269 309.143C248.6 305.887 251.459 300.516 252.91 296.367M230.529 311.11C232.943 307.964 234.411 304.196 234.761 300.246C235.11 296.296 234.327 292.328 232.502 288.807M207.453 318.977C210.358 314.705 212.095 308.619 212.095 300.685M148.794 330.561C149.55 334.251 155.409 335.871 156.353 334.072" stroke="black" stroke-width="1.157"/>
<path d="M195.656 287.187C195.656 290.787 191.877 293.487 189.042 291.327C189.42 296.545 185.453 298.166 182.618 295.647C183.185 303.026 176.761 303.745 172.603 297.986C167.88 320.122 152.008 336.68 150.873 347.479C150.495 349.999 140.385 349.279 143.031 341.901M264.248 307.525C258.579 306.851 248.609 305.192 244.268 309.143M266.515 324.442C261.276 326.422 257.043 327.117 253.668 326.882M280.97 339.549C286.191 339.354 291.577 336.047 293.725 327.862M270.856 335.402C273.021 334.888 275.052 333.917 276.813 332.555C278.573 331.192 280.023 329.47 281.064 327.503" stroke="black" stroke-width="1.157"/>
<path d="M296.559 341.36C293.269 340.37 286.325 339.063 280.97 339.549M277.853 353.419C279.932 352.338 276.531 347.479 273.128 347.479M238.172 361.517C242.983 359.552 247.601 357.142 251.965 354.319M265.288 352.518C267.853 353.334 271.617 356.478 270.294 357.558M289.568 285.208C292.592 290.248 298.259 293.487 305.818 290.248C306.35 291.766 308.147 293.324 310.383 294.568M331.327 283.948C335.107 286.828 328.493 297.446 318.668 297.086" stroke="black" stroke-width="1.157"/>
<path d="M384.235 348.92C385.546 351.915 390.472 351.619 392.362 348.92C394.52 345.835 398.408 336.321 396.14 317.243C393.873 298.166 374.6 295.647 352.302 291.327C330.005 287.008 324.335 280.168 319.802 267.571" stroke="black" stroke-width="1.157"/>
<path d="M388.015 339.021C389.904 342.08 395.195 341.36 395.951 338.3M388.581 328.762C391.416 330.382 396.895 329.842 396.706 326.243M387.07 317.423C389.526 317.423 396.14 317.783 395.763 314.904M380.834 310.045C382.913 308.604 388.771 302.485 385.558 300.685M370.253 308.965C373.843 306.984 377.811 296.726 373.465 295.826M353.057 306.984C358.726 304.824 364.017 293.666 360.238 292.947M334.73 304.465C343.987 302.125 346.823 290.248 343.232 289.167M347.389 357.738C357.032 358.472 362.317 363.317 366.096 365.297M345.122 260.011C353.907 259.201 362.545 271.999 374.52 281.566M442 203.32C443.653 197.744 445.039 192.506 445.647 189.461M352.851 368.502C355.107 368.146 357.388 367.977 359.671 367.997M438.466 185.141C437.189 188.586 434.444 195.599 431.708 202.34M200.781 244.416C184.115 249.888 166.857 260.397 155.786 279.808C161.833 281.248 173.548 279.808 178.839 278.008C179.217 282.688 179.217 288.807 179.217 292.767C184.508 288.807 190.932 283.048 195.846 281.609C195.466 286.287 195.466 294.566 195.466 297.807C202.647 290.607 216.252 289.888 220.032 300.685C223.055 284.848 247.997 284.128 254.044 297.807C260.847 285.208 278.231 280.528 289.569 285.208C294.481 271.89 316.021 264.691 330.004 267.931C325.37 261.828 326.198 255.082 329.996 249.283" stroke="black" stroke-width="1.157"/>
<path d="M147.347 157.05L154.758 158.355C154.758 158.355 149.542 165.014 147.347 157.05Z" fill="black" stroke="black" stroke-width="1.692" stroke-linejoin="round"/>
</svg>
