<svg width="512" height="512" viewBox="0 0 512 512" fill="none" xmlns="http://www.w3.org/2000/svg">
<g clip-path="url(#clip0_2187_3856)">
<rect width="512" height="512" fill="#FFCD00"/>
<path d="M512 0L0 512L512 512.5V0Z" fill="#FF671F"/>
<path d="M272.928 196.048C270.268 195.104 268.551 196.478 268.637 199.912C268.723 203.346 270.526 205.321 273.186 204.033L272.928 196.049V196.048Z" fill="white" stroke="black" stroke-width="0.521"/>
<path d="M275.264 189.616C273.049 187.867 270.981 188.617 269.96 191.897C268.938 195.177 270.011 197.626 272.944 197.261L275.264 189.617V189.616Z" fill="white" stroke="black" stroke-width="0.521"/>
<path d="M278.955 183.392C277.045 181.309 274.885 181.718 273.35 184.792C271.816 187.866 272.484 190.455 275.44 190.565L278.955 183.392ZM276.533 213.648C273.271 214.85 272.926 219.315 274.989 222.062C277.051 224.809 280.827 225.324 282.886 222.062L276.534 213.646L276.533 213.648Z" fill="white" stroke="black" stroke-width="0.521"/>
<path d="M272.757 204.203C269.666 203.172 266.882 207.324 266.404 211.071C265.804 215.793 259.106 217.338 262.799 224.465C263.57 219.914 266.577 217.425 268.98 217.253C271.382 217.081 274.99 216.566 276.535 213.647L272.757 204.203ZM282.544 222.576C278.937 223.435 278.421 228.243 280.997 231.677C283.202 234.617 290.098 233.909 289.926 230.99L282.544 222.576ZM292.763 251.51C292.933 248.419 287.956 247.217 285.551 247.818C283.147 248.419 278.554 247.732 277.481 245.156C276.623 247.217 277.867 249.449 281.345 250.565C283.976 251.41 283.921 253.313 283.147 254.171C285.123 254.515 290.961 254.515 292.763 251.51V251.51Z" fill="white" stroke="black" stroke-width="0.521"/>
<path d="M289.931 231.765C286.411 230.22 284.324 232.574 282.977 234.856C281.002 238.204 274.906 233.912 272.846 238.376C275.637 237.174 278.477 239.738 279.8 240.609C283.577 243.098 290.875 242.326 291.906 236.487L289.931 231.765Z" fill="white" stroke="black" stroke-width="0.521"/>
<path d="M291.989 235.883C288.469 238.544 287.096 241.721 287.183 243.867C287.27 246.014 290.274 250.736 293.536 250.993C295.425 247.13 296.37 238.973 291.99 235.883H291.989ZM277.397 252.453C277.397 251.165 279.286 250.651 280.573 251.08C281.859 251.508 283.835 252.797 283.149 254.171L277.397 252.453ZM257.989 245.413C257.647 243.868 260.136 241.207 263.485 242.666C266.834 244.126 267.262 246.959 265.887 248.075L257.989 245.414V245.413Z" fill="white" stroke="black" stroke-width="0.521"/>
<path d="M266.144 248.245C265.886 247.387 268.297 245.672 272.413 246.7C276.533 247.73 277.543 250.383 277.393 252.452L266.144 248.245ZM257.563 245.413C259.709 243.782 258.896 240.691 256.96 239.747C253.44 238.029 254.729 233.565 252.496 232.707C250.263 231.848 248.118 230.302 248.032 228.757C246.916 230.903 247.603 232.878 249.149 234.252C250.696 235.626 247.947 241.206 249.921 242.666L257.563 245.413ZM211.541 244.213C209.739 241.38 205.445 241.895 203.643 243.87C201.84 245.844 202.098 248.764 203.814 250.051L211.541 244.213ZM221.845 240.005C221.158 236.228 216.608 235.798 214.118 236.743C211.629 237.687 209.911 241.465 211.542 244.212L221.846 240.005H221.845Z" fill="white" stroke="black" stroke-width="0.521"/>
<path d="M228.715 239.488C230.346 236.312 227.17 231.59 223.563 230.903C220.553 230.33 216.995 230.345 215.836 227.383C215.107 229.959 217.039 231.59 219.271 233.049C221.504 234.509 218.841 238.287 222.448 240.433L228.715 239.489L228.715 239.488Z" fill="white" stroke="black" stroke-width="0.521"/>
<path d="M228.373 239.6C227.622 237.324 229.146 234.297 232.23 234.509C235.315 234.722 237.073 236.963 235.713 239.765L228.373 239.6H228.373Z" fill="white" stroke="black" stroke-width="0.521"/>
<path d="M235.237 239.771C234.813 237.412 236.747 234.629 239.771 235.272C242.795 235.915 244.22 238.381 242.482 240.965L235.237 239.771Z" fill="white" stroke="black" stroke-width="0.521"/>
<path d="M242.059 240.853C241.752 238.476 243.823 235.793 246.812 236.586C249.801 237.379 251.101 239.914 249.234 242.408L242.059 240.853ZM190.251 280.187C184.498 280.187 183.093 281.556 182.266 287.484C181.236 294.868 191.281 295.727 190.251 280.187Z" fill="white" stroke="black" stroke-width="0.521"/>
<path d="M192.827 272.459C183.983 269.111 179.176 283.105 170.419 280.615C173.552 285.595 181.148 280.624 183.983 281.13C188.791 281.989 199.18 280.186 192.827 272.459ZM187.072 291.606C182.693 289.631 177.971 296.328 178.83 299.247C179.92 302.954 189.905 299.934 187.072 291.606ZM166.64 320.454C169.044 321.138 171.963 322.513 171.448 327.149C170.933 331.785 162.176 341.229 154.277 341.745C146.379 342.26 143.545 351.789 136.763 349.127C143.116 347.927 143.116 340.714 148.095 338.483C144.489 337.194 142.601 345.352 137.965 345.352C133.329 345.352 131.097 352.734 125.43 352.218C119.763 351.703 119.167 361.207 107.83 361.321C99.1579 361.405 88.4267 371.536 84.5632 367.159C92.9771 365.956 96.3723 361.294 101.391 356.168C109.461 347.928 118.562 351.618 121.652 344.321C117.961 346.81 113.668 348.011 109.461 347.928C104.18 347.818 98.3862 356.341 92.4619 352.563C95.896 352.134 98.1286 350.674 101.734 346.896C105.427 343.027 110.845 345.528 115.128 341.574C121.825 335.392 127.577 340.543 134.016 332.816C132.213 331.959 128.349 332.559 124.743 334.447C121.138 336.336 116.501 333.159 112.38 335.392C112.895 330.327 122.511 333.225 128.521 329.725C135.304 325.776 140.927 326.934 146.293 327.407C138.824 327.365 135.905 320.28 125.603 322.34C121.109 323.241 117.532 316.16 113.068 319.765C113.196 317.105 117.876 314.958 122.684 317.534C127.492 320.11 129.429 315.28 138.996 321.312C142.946 323.801 149.728 319.765 154.02 322.427C153.462 320.796 151.015 319.765 148.14 319.98C149.942 316.29 161.576 316.761 166.641 320.454L166.64 320.454Z" fill="white" stroke="black" stroke-width="0.521"/>
<path d="M174.283 314.869C170.505 311.95 165.268 315.471 161.662 314.097C161.662 316.5 162.864 320.107 166.813 321.48C168.015 320.622 173.424 315.9 174.283 314.869Z" fill="white" stroke="black" stroke-width="0.521"/>
<path d="M180.208 306.544C174.284 303.539 173.254 311.008 168.618 309.463C168.789 311.61 170.507 314.271 174.284 314.872L180.208 306.544Z" fill="white" stroke="black" stroke-width="0.521"/>
<path d="M183.728 299.76C174.971 296.325 173.855 304.74 168.704 303.108C169.906 306.027 177.289 307.572 181.067 306.543L183.728 299.76ZM195.744 262.928C193.426 259.666 188.532 262.327 187.76 266.191C186.987 270.054 188.875 275.463 192.138 274.261L195.744 262.928Z" fill="white" stroke="black" stroke-width="0.521"/>
<path d="M201.669 252.624C197.634 251.68 192.998 252.109 193.513 256.059C191.968 256.745 191.538 261.811 195.745 262.927L201.669 252.624V252.624Z" fill="white" stroke="black" stroke-width="0.521"/>
<path d="M204.331 249.963C200.381 245.327 195.977 245.435 193.513 247.387C188.963 250.993 184.541 248.932 184.412 252.539C187.16 250.435 189.564 252.968 191.796 252.195C194.028 251.422 195.659 255.715 201.841 253.912L204.331 249.963ZM194.8 319.253C195.401 320.369 199.093 320.884 200.896 318.996C203.285 316.491 200.638 309.551 196.861 309.036C193.083 308.521 192.74 316.849 194.8 319.253Z" fill="white" stroke="black" stroke-width="0.521"/>
<path d="M190.507 319.424C195.915 321.397 198.234 316.933 195.315 314.101C194.541 315.045 191.708 318.48 190.507 319.424Z" fill="white" stroke="black" stroke-width="0.521"/>
<path d="M170.245 326.806C169.215 329.897 163.892 330.413 157.882 340.028C151.873 349.643 146.12 345.608 144.66 352.219C151.872 346.381 157.536 350.259 161.831 344.492C168.356 335.734 173.729 336.992 176.255 331.098C179.86 322.685 195.658 322.856 196.517 309.635C191.194 308.604 174.366 322.856 170.245 326.805V326.806ZM305.728 196.992C312.597 199.224 312.768 208.153 320.666 211.072C328.563 213.991 329.339 221.031 335.777 219.314C329.768 217.683 330.196 210.729 323.93 209.011C316.579 206.998 313.799 195.79 307.959 194.073M337.237 243.611C338.44 246.358 338.268 251.252 333.975 252.54C336.293 254 339.726 252.625 341.615 249.449C338.782 255.716 340.671 261.383 345.135 262.499C342.988 258.121 347.797 256.06 346.253 253.227C349.087 254.429 351.576 258.292 351.489 260.696C355.182 256.575 348.742 251.08 349.944 247.217L337.237 243.611V243.611ZM292.763 287.739C288.556 284.047 286.761 288.704 284.692 287.095C282.761 285.592 280.185 285.377 279.199 286.88C282.805 287.009 281.043 289.799 288.041 290.486C281.043 290.959 282.332 298.771 277.652 298.385C282.632 303.107 285.208 294.178 289.243 295.638C288.041 295.981 291.132 298.814 288.985 302.592C292.463 302.506 293.879 297.698 294.309 295.208L292.763 287.739ZM200.123 327.835C198.577 326.548 194.113 325.946 192.396 326.977C190.679 328.009 191.28 328.264 193.34 328.437C195.4 328.61 198.061 331.942 193.598 332.128C191.537 332.212 192.224 337.193 187.931 337.537C189.691 339.684 194.714 338.266 196.517 335.906C196.173 337.837 198.749 339.597 197.719 341.915C200.896 342.26 199.05 335.478 204.073 335.819C202.012 336.078 202.871 340.713 206.476 339.511C204.33 340.542 205.446 343.031 207.85 342.431C206.305 342.946 205.789 344.92 207.936 346.038C209.996 343.205 207.678 333.073 200.123 327.835V327.835ZM387.12 233.104C393.691 233.104 399.018 227.776 399.018 221.204C399.018 214.633 393.691 209.306 387.12 209.306C380.549 209.306 375.22 214.634 375.22 221.204C375.22 227.775 380.547 233.104 387.12 233.104Z" fill="white"/>
<path d="M305.728 196.992C312.597 199.224 312.768 208.153 320.666 211.072C328.563 213.991 329.339 221.031 335.777 219.314C329.768 217.683 330.196 210.729 323.93 209.011C316.579 206.998 313.799 195.79 307.959 194.073M170.245 326.806C169.215 329.897 163.892 330.413 157.882 340.028C151.873 349.643 146.12 345.608 144.66 352.219C151.872 346.381 157.536 350.259 161.831 344.492C168.356 335.734 173.729 336.992 176.255 331.098C179.86 322.685 195.658 322.856 196.517 309.635C191.194 308.604 174.366 322.856 170.245 326.805V326.806ZM337.237 243.611C338.44 246.358 338.268 251.252 333.975 252.54C336.293 254 339.726 252.625 341.615 249.449C338.782 255.716 340.671 261.383 345.135 262.499C342.988 258.121 347.797 256.06 346.253 253.227C349.087 254.429 351.576 258.292 351.489 260.696C355.182 256.575 348.742 251.08 349.944 247.217L337.237 243.611V243.611ZM292.763 287.739C288.556 284.047 286.761 288.704 284.692 287.095C282.761 285.592 280.185 285.377 279.199 286.88C282.805 287.009 281.043 289.799 288.041 290.486C281.043 290.959 282.332 298.771 277.652 298.385C282.632 303.107 285.208 294.178 289.243 295.638C288.041 295.981 291.132 298.814 288.985 302.592C292.463 302.506 293.879 297.698 294.309 295.208L292.763 287.739ZM200.123 327.835C198.577 326.548 194.113 325.946 192.396 326.977C190.679 328.009 191.28 328.264 193.34 328.437C195.4 328.61 198.061 331.942 193.598 332.128C191.537 332.212 192.224 337.193 187.931 337.537C189.691 339.684 194.714 338.266 196.517 335.906C196.173 337.837 198.749 339.597 197.719 341.915C200.896 342.26 199.05 335.478 204.073 335.819C202.012 336.078 202.871 340.713 206.476 339.511C204.33 340.542 205.446 343.031 207.85 342.431C206.305 342.946 205.789 344.92 207.936 346.038C209.996 343.205 207.678 333.073 200.123 327.835V327.835ZM387.12 233.104C393.691 233.104 399.018 227.776 399.018 221.204C399.018 214.633 393.691 209.306 387.12 209.306C380.549 209.306 375.22 214.634 375.22 221.204C375.22 227.775 380.547 233.104 387.12 233.104Z" stroke="black" stroke-width="0.521"/>
<path d="M324.96 247.478C328.567 244.043 334.062 242.326 337.838 244.902C341.613 247.477 354.152 250.568 360.333 246.275C366.515 241.983 369.434 239.75 372.18 240.265C374.243 243.356 376.731 244.816 379.822 245.073C380.766 246.104 384.116 246.962 386.005 246.704C388.752 247.391 392.1 246.533 394.761 243.614C398.883 244.215 402.745 241.124 404.205 236.488C408.582 235.973 408.841 231.079 406.094 227.816C403.518 227.302 405.494 218.63 396.134 220.347C400.085 222.751 397.078 227.559 400.343 229.791C398.109 229.791 395.234 230.736 394.547 234.084C395.405 231.766 394.418 230.22 393.816 229.706C393.903 227.731 389.525 222.88 385.403 224.64C388.365 225.284 386.691 230.049 388.838 231.852C387.291 231.938 385.66 232.711 384.716 234.084C383.6 232.11 379.651 230.049 377.247 229.877C377.247 229.19 377.118 227.817 376.818 227.13C375.745 225.07 374.843 222.623 375.272 219.489C373.211 221.721 371.494 224.811 370.465 227.044C367.203 224.812 359.131 228.074 355.354 228.932C351.576 229.791 338.869 227.731 335.949 224.64C333.029 221.548 327.365 219.66 322.043 218.115C314.723 215.991 314.658 207.984 306.587 202.489C306.417 212.449 321.528 244.043 324.961 247.478H324.96ZM240.821 323.371C247.175 323.371 252.326 318.22 252.326 311.866C252.326 305.513 247.175 300.362 240.821 300.362C234.468 300.362 229.317 305.513 229.317 311.866C229.317 318.219 234.468 323.371 240.821 323.371Z" fill="white" stroke="black" stroke-width="0.521"/>
<path d="M213.344 314.528C215.662 317.533 219.611 317.362 221.243 317.104C222.617 320.709 226.995 320.624 228.884 322.597C230.773 324.571 237.211 324.402 239.1 323.284C237.384 323.114 235.152 322.084 233.005 320.28C230.414 318.104 231.631 313.755 229.57 312.21C231.116 310.493 231.373 307.66 231.03 306.544C232.662 305.599 233.864 304.053 234.035 303.281C236.869 303.109 239.358 301.65 240.389 300.534C241.849 301.907 245.54 300.104 247.516 302.422C247.945 296.755 242.536 293.75 238.929 295.64C237.469 294.867 233.607 295.382 232.92 296.413C231.717 295.897 228.369 297.614 226.824 298.731C228.541 297.787 228.798 294.953 228.111 293.923C229.571 293.322 231.202 291.347 231.373 289.888C233.434 290.231 236.524 288.857 237.898 289.201C235.667 286.282 231.975 285.251 228.197 285.509C224.29 285.724 222.617 288.471 222.101 291.433C219.784 292.807 219.011 297.443 219.869 299.074C218.538 299.032 217.293 300.32 216.779 301.049C214.976 300.276 212.4 299.718 210.554 299.718M211.371 295.04C210.598 292.808 211.621 290.798 212.144 289.03C213.474 284.524 212.659 283.364 208.624 283.965C208.28 286.112 210.341 293.152 211.371 295.04Z" fill="white"/>
<path d="M213.344 314.528C215.662 317.533 219.611 317.362 221.243 317.104C222.617 320.709 226.995 320.624 228.884 322.597C230.773 324.571 237.211 324.402 239.1 323.284C237.384 323.114 235.152 322.084 233.005 320.28C230.414 318.104 231.631 313.755 229.57 312.21C231.116 310.493 231.373 307.66 231.03 306.544C232.662 305.599 233.864 304.053 234.035 303.281C236.869 303.109 239.358 301.65 240.389 300.534C241.849 301.907 245.54 300.104 247.516 302.422C247.945 296.755 242.536 293.75 238.929 295.64C237.469 294.867 233.607 295.382 232.92 296.413C231.717 295.897 228.369 297.614 226.824 298.731C228.541 297.787 228.798 294.953 228.111 293.923C229.571 293.322 231.202 291.347 231.373 289.888C233.434 290.231 236.524 288.857 237.898 289.201C235.667 286.282 231.975 285.251 228.197 285.509C224.29 285.724 222.617 288.471 222.101 291.433C219.784 292.807 219.011 297.443 219.869 299.074C218.538 299.032 217.293 300.32 216.779 301.049C214.976 300.276 212.4 299.718 210.554 299.718M211.371 295.04C210.598 292.808 211.621 290.798 212.144 289.03C213.474 284.524 212.659 283.364 208.624 283.965C208.28 286.112 210.341 293.152 211.371 295.04Z" stroke="black" stroke-width="0.521"/>
<path d="M208.411 284.219C209.441 285.249 213.09 285.721 213.476 282.459C213.92 278.714 212.403 277.264 209.14 278.724C208.883 279.582 208.582 283.102 208.411 284.219Z" fill="white" stroke="black" stroke-width="0.521"/>
<path d="M209.184 278.597C210.558 279.155 213.52 280.272 215.151 277.095C216.52 274.431 214.722 272.373 211.889 272.544C211.202 273.317 209.828 276.064 209.184 278.597Z" fill="white" stroke="black" stroke-width="0.521"/>
<path d="M211.717 272.288C212.061 273.318 215.581 276.752 218.156 274.263C220.732 271.774 220.732 268.082 216.868 266.708C215.838 266.879 212.747 270.485 211.717 272.288Z" fill="white" stroke="black" stroke-width="0.521"/>
<path d="M216.864 266.71C217.637 268.856 220.041 272.547 224.505 270.831C228.97 269.114 227.081 263.533 225.02 262.417C223.818 262.502 218.924 264.735 216.864 266.71Z" fill="white" stroke="black" stroke-width="0.521"/>
<path d="M225.024 262.416C224.681 264.305 225.024 269.456 231.119 269.37C237.215 269.284 235.499 262.159 233.953 261.128C231.463 261.128 227.257 261.214 225.024 262.416Z" fill="white" stroke="black" stroke-width="0.521"/>
<path d="M234.208 261.381C233.521 262.841 231.973 272.448 243.91 269.795C245.454 269.452 249.49 260.609 234.208 261.381Z" fill="white" stroke="black" stroke-width="0.521"/>
<path d="M240.731 262.24C239.531 263.442 242.62 273.144 250.691 271.512C258.762 269.881 251.98 260.695 240.731 262.24Z" fill="white" stroke="black" stroke-width="0.521"/>
<path d="M247.6 263.701C246.313 266.363 248.247 274.261 258.204 274.261C267.229 274.261 257.731 263.873 247.6 263.701Z" fill="white" stroke="black" stroke-width="0.521"/>
<path d="M255.413 266.021C254.767 267.497 253.976 275.871 265.716 276.581C274.216 277.097 272.156 265.077 255.413 266.021Z" fill="white" stroke="black" stroke-width="0.521"/>
<path d="M268.037 269.542C266.58 272.118 265.033 278.556 277.911 279.072C286.162 279.402 281.089 269.713 268.037 269.542Z" fill="white" stroke="black" stroke-width="0.521"/>
<path d="M278.768 271.515C276.879 274.091 278.27 279.143 283.059 280.1C289.07 281.303 289.928 275.636 285.808 272.889C281.688 270.141 278.768 271.515 278.768 271.515Z" fill="white" stroke="black" stroke-width="0.521"/>
<path d="M284.608 272.715C283.235 275.119 284.085 280.957 293.192 280.957C295.082 280.957 302.295 273.574 284.608 272.715ZM214.123 384.678C221.499 384.678 227.478 378.697 227.478 371.322C227.478 363.946 221.499 357.964 214.123 357.964C206.747 357.964 200.766 363.944 200.766 371.322C200.766 378.699 206.746 384.678 214.123 384.678Z" fill="white" stroke="black" stroke-width="0.521"/>
<path d="M312.08 190.469C311.049 191.5 308.905 194.591 308.473 195.792C304.009 209.186 315.926 219.19 322.898 233.568C328.393 244.901 327.707 262.759 319.12 274.092C316.182 277.969 317.06 279.072 313.282 283.021C311.833 284.536 310.191 286.456 310.707 291.95C313.111 291.091 316.545 293.324 317.231 295.213C318.948 294.354 321.354 294.698 322.211 295.728C325.129 294.354 327.533 295.041 330.108 297.788C332.342 297.445 334.746 297.788 336.978 300.192C338.18 297.788 340.584 296.93 342.3 297.445C342.129 294.354 345.22 292.122 347.967 293.324C347.108 289.203 350.887 286.112 354.493 287.314C357.582 284.91 363.764 284.738 366.856 288.344C361.36 286.799 361.533 292.637 356.896 292.122C358.098 295.556 355.006 297.531 351.917 298.647C353.891 297.703 356.037 296.586 356.724 297.788C358.442 296.286 361.875 296.844 362.735 297.617C365.009 296.887 367.2 297.445 368.228 300.192C371.32 302.081 373.38 306.889 371.149 310.495C370.462 306.717 367.887 306.889 366.856 305.344C364.451 306.202 362.047 306.202 361.36 304.657C359.987 306.031 355.351 307.233 353.291 305.172C352.517 308.263 349.856 310.839 346.764 310.839C347.624 313.242 345.22 317.364 343.331 319.424C346.251 320.969 345.391 324.404 344.704 326.464C349.169 327.151 345.391 331.1 353.117 333.675C349.342 334.877 341.957 333.675 340.927 329.04C337.149 328.869 334.573 325.091 334.746 321.139C331.826 318.393 331.397 314.444 335.433 311.697C331.997 312.727 330.108 307.233 325.129 309.465C322.653 310.575 316.115 308.692 316.202 306.374C315.17 308.091 308.904 307.404 308.044 304.485C305.984 305.601 301.175 303.712 301.261 300.879C298.599 302.081 294.995 299.935 295.165 297.187C292.677 296.844 292.419 294.611 292.591 292.723C290.357 291.692 290.959 289.546 291.817 286.971C290.273 285.253 290.959 282.85 292.161 280.617C290.444 278.9 290.788 276.84 291.301 274.436C283.059 273.749 272.735 271.761 249.061 264.477C213.346 253.488 203.73 279.244 211.628 295.385C220.741 314.009 210.598 318.051 213.689 331.961C216.952 332.647 218.668 335.394 218.497 338.314C220.428 338.398 221.802 340.201 221.115 343.636C222.746 343.336 224.85 343.807 226.224 345.18C227.426 342.949 231.376 342.434 233.436 345.01C237.9 344.665 240.132 348.272 239.961 352.736C242.364 357.029 241.506 362.267 238.93 365.614C239.188 363.812 238.93 361.236 238.846 359.692C238.686 356.85 234.723 356.257 235.153 353.938C233.092 354.109 231.117 352.994 230.431 351.45C229.229 352.479 227.512 352.823 226.052 352.307C228.37 353.338 230.173 357.458 229.486 360.205C230.689 362.267 230.431 366.045 228.971 367.676C228.284 371.023 225.709 372.225 222.361 370.765C224.25 369.565 224.937 367.418 224.85 365.613C223.649 364.585 223.048 362.609 222.962 361.407C219.613 361.922 214.977 359.089 214.122 357.969C206.746 357.969 200.766 363.949 200.766 371.327C200.423 368.578 196.947 365.872 197.377 363.554C195.316 357.2 198.235 351.276 206.649 350.076C205.619 347.672 209.225 345.18 207.851 342.434C206.097 338.924 202.872 334.363 198.065 329.04C200.984 324.06 200.125 317.364 198.408 313.243C195.942 307.325 193.6 308.779 184.842 318.394C170.57 334.065 151.53 329.727 134.702 340.029C130.231 342.767 125.774 343.807 130.581 339C135.389 334.193 148.096 329.385 156.338 325.263C171.772 317.545 184.842 304.658 189.993 279.588C202.098 220.676 246.655 240.095 274.815 251.084C301.252 261.402 296.45 238.034 283.057 223.954C266.959 207.031 270.179 193.733 277.735 183.087C291.299 181.198 317.315 185.92 312.077 190.471L312.08 190.469Z" fill="white" stroke="black" stroke-width="0.521"/>
<path d="M359.904 335.189C368.02 335.189 374.599 328.612 374.599 320.496C374.599 312.38 368.019 305.801 359.904 305.801C351.789 305.801 345.208 312.38 345.208 320.496C345.208 328.612 351.789 335.189 359.904 335.189Z" fill="white" stroke="black" stroke-width="0.521"/>
<path d="M303.84 191.152C300.578 205.576 303.324 212.101 308.134 218.454C318.069 231.585 325.991 261.553 314.658 281.126" stroke="black" stroke-width="0.521"/>
<path d="M321.008 264.219C322.381 263.704 324.957 262.073 325.559 259.239M322.037 257.952C322.466 255.463 326.328 254.389 326.415 251.728M322.123 248.245C321.865 245.669 325.987 243.352 325.385 240.776M319.893 238.976C319.549 237.516 323.327 234.769 322.297 232.451M317.061 229.963C316.288 228.331 318.864 226.443 317.748 224.725M312.939 222.747C312.681 221.631 314.27 219.184 313.412 217.725M308.816 214.251C309.158 213.821 310.533 212.791 309.973 211.504M305.984 208.027C306.542 207.726 308.215 207.211 308.001 205.967" stroke="black" stroke-width="0.521" stroke-linecap="round"/>
<path d="M220.043 369.904C216.608 368.702 212.316 370.42 211.457 373.34M214.032 376C214.461 373.083 218.926 371.793 220.299 373.166C217.466 371.622 216.092 377.116 218.582 377.289M241.68 308.091C239.62 309.121 239.02 312.899 241.68 315.733M244.768 308.949C243.31 310.152 243.395 313.757 245.541 314.616C243.739 313.328 245.541 311.096 246.83 311.01C248.119 310.924 248.974 312.469 247.43 314.015M365.397 317.445C360.591 316.158 356.726 321.739 361.104 326.719C361.02 321.91 364.453 318.734 368.66 319.592M366.725 322.917C365.543 322.917 364.879 323.842 364.879 324.741C364.879 325.686 365.694 326.588 367.026 326.588C367.885 326.588 368.572 325.602 368.572 324.828M383.68 217.509C384.453 220.428 388.489 221.63 391.664 220.944M391.664 219.056C389.175 219.142 387.115 216.824 387.286 214.849C387.286 216.309 390.635 216.996 391.664 216.051" stroke="black" stroke-width="0.521" stroke-linecap="round" stroke-linejoin="round"/>
<path d="M221.243 317.104C220.556 315.387 223.303 313.67 223.389 312.038C223.475 310.406 226.48 309.119 229.571 312.21M228.112 293.926C227.511 294.183 226.996 294.527 226.481 294.698M234.037 303.28C233.307 303.323 231.805 303.238 230.989 302.679M231.035 306.544C230.434 306.845 229.102 307.36 228.33 307.532M201.584 358.4C201.498 359.947 203.044 362.178 203.902 362.864M208.283 354.71C207.424 355.996 206.909 358.23 207.424 359.774M221.072 359.862C219.526 358.831 220.557 356.168 220.385 354.452C220.213 352.737 222.188 349.988 226.052 352.306M206.651 350.075C208.196 349.817 209.827 349.902 210.858 350.331M226.224 345.179C225.537 346.123 225.365 347.154 225.28 347.841M233.435 345.008C232.233 345.008 231.203 345.866 230.687 346.726M216.779 301.051C218.153 301.523 221.715 303.712 221.844 305.988M231.376 289.888C227.169 289.802 225.538 285.51 228.715 285.51M238.933 295.638C237.302 296.324 238.076 299.158 240.393 300.531M228.885 322.598C228.069 321.568 229.143 318.564 231.804 319.464M235.152 353.936C235.323 351.319 238.629 349.772 239.961 352.734M222.96 361.403C222.745 358.527 224.205 357.583 225.492 357.412C226.78 357.241 228.627 358.312 229.485 360.201M197.376 363.552C197.548 361.835 199.007 360.032 200.553 360.29M354.491 287.312C353.373 288.128 352.644 291.776 356.893 292.12M347.968 293.323C347.968 293.752 348.526 294.353 348.87 294.611M368.229 300.192C367.114 299.334 364.236 302.811 366.856 305.344M340.928 329.04C340.284 326.593 342.559 325.949 344.706 326.464M335.435 311.696C336.722 310.838 338.011 309.894 339.642 309.464M334.747 321.136C334.747 319.076 335.776 317.36 336.72 316.845M342.299 297.446C342.128 299.935 343.159 302.339 343.932 303.627M362.736 297.616C361.49 298.003 360.373 298.475 359.902 299.505M361.36 304.656C361.963 304.141 362.649 303.54 362.949 303.111M393.813 229.702C393.813 232.105 390.809 233.393 388.836 231.848M400.341 229.787C401.67 230.817 406.263 229.83 405.19 227.168M394.757 243.611C393.813 243.439 392.181 242.409 391.495 241.551M404.203 236.486C402.658 236.829 401.627 236.486 400.853 236.142M379.819 245.072C380.676 245.072 382.736 244.729 384.155 243.999M377.243 229.878C376.127 229.75 375.309 229.963 374.667 230.393M394.544 234.08C394.244 235.154 393.47 236.827 392.526 237.558" stroke="black" stroke-width="0.521" stroke-linecap="round"/>
<path d="M374.325 237.861C376.472 236.917 379.134 244.214 384.285 241.639M384.715 234.08C384.028 235.024 383.599 236.484 383.512 237.772" stroke="black" stroke-width="0.521" stroke-linecap="round" stroke-linejoin="round"/>
<path d="M282.032 222.923C282.719 222.837 283.921 222.579 284.179 221.721M193.686 302.853C196.262 304.313 198.064 306.803 196.948 310.494M311.734 215.024C312.507 215.539 315.427 215.539 317.058 214.939M319.12 216.741C319.033 217.943 319.378 222.493 317.06 223.438M317.92 222.837C320.067 223.524 324.36 223.267 325.734 219.317M322.726 222.661C323.841 224.379 324.183 227.727 320.836 229.53M323.584 225.499C326.073 226.357 331.826 226.443 331.224 221.549M329.254 225.499C330.971 227.902 338.527 230.736 337.324 225.756M322.299 232.448C325.216 233.135 329.339 231.16 327.622 226.009M335.862 228.587C336.29 230.562 345.906 232.622 344.619 228.157M342.816 230.736C344.62 234.857 354.15 234.514 351.145 229.019M349.6 233.307C351.489 235.625 359.905 234.251 356.556 228.67M356.464 233.221C361.702 237.171 367.798 231.504 361.186 227.383M364.192 231.936C368.83 235.628 374.497 228.931 370.461 227.042M327.531 230.389C328.991 230.819 332.082 230.647 332.768 227.986M331.611 229.787C331.44 233.693 338.009 235.196 339.682 230.688M337.494 233.136C338.696 235.712 344.447 236.741 345.391 233.05M344.448 234.768C345.392 237.344 350.372 237.086 351.746 234.425M349.942 236.144C351.486 239.492 357.839 239.492 359.299 234.598M358.187 236.741C360.676 238.287 366 237.685 365.569 232.878M364.539 236.315C368.23 239.32 373.468 236.401 370.892 231.335M370.635 240.261C372.61 239.918 373.639 235.969 371.579 234.939M324.875 240.949C328.995 238.717 329.768 234.94 326.935 231.248M328.395 237.173C330.971 238.718 335.864 237.088 336.722 233.31M331.915 237.6C333.372 239.489 333.631 241.807 331.742 243.953M333.115 240.005C337.664 237.172 343.33 242.41 339.124 245.586M338.352 239.749C339.383 239.492 341.186 237.603 341.356 235.457M340.411 241.723C342.3 239.748 355.18 243.783 347.022 247.904M346.422 236.315C348.911 237.259 350.199 240.779 346.422 241.981M349.686 244.901C352.432 242.068 361.019 243.871 357.928 247.477M355.867 243.781C357.411 238.544 366.598 241.806 363.594 243.953M353.979 238.544C354.236 239.574 354.321 242.15 352.606 243.524M361.707 237.515C362.049 238.373 361.964 240.004 361.191 241.035M367.542 237.6C368.057 238.544 368.915 240.347 367.026 241.807M294.054 198.107C294.138 203 295.856 206.263 302.467 203.172M296.112 203.947C292.85 208.325 296.541 213.047 302.981 208.325M286.064 206.091C290.528 210.899 298.513 207.379 293.362 200.081M298.774 210.213C297.913 214.935 301.778 215.88 304.954 213.733M282.118 206.864C282.931 211.611 287.784 215.364 292.506 212.445M287.958 213.392C287.958 220.175 297.315 220.947 299.462 213.907M296.112 218.197C299.116 224.379 305.641 221.889 307.788 218.112M289.499 208.325C290.701 211.33 293.106 214.679 298.686 212.189M272.331 206.864C273.104 209.354 277.568 212.359 282.72 208.924M275.504 210.043C272.755 214.078 278.251 217.855 284.862 211.845M278.768 215.024C279.884 220.691 282.115 225.241 290.186 217.943M286.15 220.859C289.07 224.464 293.534 226.697 297.74 220.601" stroke="black" stroke-width="0.521"/>
<path d="M300.832 221.888C300.575 226.181 301.432 228.327 304.781 228.155C307.421 228.02 309.932 225.923 311.392 223.691M304.182 228.16C304.095 233.054 307.958 236.918 315.17 231.938M307.184 233.91C305.811 237.601 309.931 243.611 318.002 240.52M290.102 224.123C289.588 228.845 293.966 232.022 301.006 225.926M293.536 229.36C293.794 233.224 298.172 237.86 304.612 231.163M296.624 234.256C296.108 240.867 302.204 242.756 307.355 237.691M287.44 229.36C288.814 229.446 289.929 228.244 290.616 227.385M290.358 234.166C291.56 234.423 293.622 233.307 294.308 231.934M293.366 241.979C294.739 243.439 299.375 242.408 299.975 240.434M298.518 241.894C301.094 247.903 307.96 247.646 310.793 240.863M309.504 243.27C310.791 246.79 314.055 249.022 319.378 247.82M312.08 246.875C309.076 251.769 313.024 257.521 319.72 251.855M313.712 254.171C313.37 257.262 316.203 260.782 320.066 261.211M301.003 245.158C299.972 252.112 304.952 255.46 311.22 251.768M293.707 248.507C295.338 249.795 298.258 249.967 301.004 248.936M304.352 252.971C302.806 258.809 308.816 263.016 313.968 256.491M296.027 249.451C296.114 252.456 299.034 255.718 304.098 254.774M318.262 260.784C314.826 263.102 314.139 267.223 318.948 269.884M309.846 259.579C310.019 263.099 311.65 265.074 315.512 265.417M304.784 257.776C299.633 262.498 304.697 267.993 310.793 263.357M308.39 264.816C306.672 270.225 313.112 273.488 316.545 267.993M297.744 253.312C295.855 258.635 298.26 262.155 302.638 261.812M290.96 252.283C291.218 255.459 293.964 256.576 297.056 255.889M292.934 255.632C290.616 260.096 294.136 262.5 298.774 260.784M312.854 270.742C312.08 273.575 312.509 275.635 316.716 276.58M313.11 274.779C308.043 277.097 307.614 281.991 311.563 285.167M309.03 269.328C306.37 271.732 306.883 275.896 309.803 277.527M286.496 253.659C283.576 256.535 286.367 264.476 292.805 260.142M303.238 263.702C299.287 266.964 301.091 272.888 307.615 271.257M296.71 261.211C294.65 267.049 296.625 269.11 301.26 269.195M282.203 253.398C278.683 256.059 279.627 259.836 281.174 261.554C282.72 263.271 285.636 262.498 286.581 260.266M274.816 251.083C270.867 256.148 274.816 262.158 280.399 260.355M295.942 266.107C291.906 267.567 288.828 271.231 291.304 274.435C292.764 276.324 299.117 276.582 300.92 269.283M288.64 261.382C286.322 264.73 287.094 267.907 291.387 269.538M288.384 267.654C285.894 269.027 284.262 270.659 284.864 273.664M282.806 262.416C281.862 266.451 282.976 268.942 285.465 270.143M282.72 267.222C278.856 266.964 276.882 268.595 278.169 272.373M278.512 268.166C274.735 266.792 274.132 263.529 275.763 260.095M275.248 265.163C271.126 265.335 269.324 267.395 269.324 270.228M269.664 249.104C266.66 250.392 265.715 254.427 266.831 256.659C267.946 258.892 271.468 259.064 273.615 257.603M261.254 245.931C258.507 249.022 261.682 255.032 266.578 253.572M254.214 243.526C251.638 247.131 254.471 253.142 261.082 251.424M261.424 268.166C260.737 263.872 265.202 261.04 270.698 266.62M268.038 257.952C266.407 259.412 265.635 261.73 265.891 263.619M247.174 241.467C244.34 246.275 247.776 250.654 253.871 248.936M263.056 253.398C259.02 257.433 260.394 261.468 263.399 263.786M260.48 258.123C254.385 258.208 254.042 265.249 259.023 267.481M255.846 251.083C253.356 252.8 252.583 257.522 256.876 259.411M255.675 261.643C253.099 260.441 250.008 261.9 250.266 264.905M251.808 261.728C249.49 256.233 242.708 257.178 243.311 262.844M253.696 254.944C252.239 255.202 249.319 256.06 248.203 258.292M248.635 248.763C245.888 251.854 248.032 255.545 250.266 256.318M240.48 240.091C239.964 243.783 241.424 245.586 246.06 245.242M242.107 244.816C240.303 249.28 242.707 251.255 247.343 250.998M243.136 250.31C240.39 253.572 242.279 257.092 244.939 258.552M241.851 254.432C236.958 253.831 236.184 259.498 237.815 262.159" stroke="black" stroke-width="0.521"/>
<path d="M237.899 239.664C234.895 240.952 233.178 244.73 234.809 247.048C236.441 249.365 239.703 248.593 241.506 247.391M235.84 248.075C233.35 251.852 235.582 254.685 238.244 255.802" stroke="black" stroke-width="0.521"/>
<path d="M226.224 239.232C224.25 241.292 225.451 245.5 230.259 245.586C234.13 245.655 236.097 241.98 234.895 239.404M229.573 245.584C228.028 249.019 228.972 252.71 234.811 252.109M237.301 257.52C233.696 255.889 228.887 257.52 230.948 261.814M230.432 251.424C228.972 253.484 229.488 256.404 231.119 258.207M230.176 256.918C227.772 257.347 225.454 258.635 226.914 262.412M226.565 259.323C223.475 258.379 219.525 260.611 221.929 263.787M221.419 260.784C218.757 260.355 215.581 263.188 218.156 266.022M217.125 263.702C214.721 264.303 211.888 267.05 214.378 269.196M229.232 250.224C225.797 251.769 225.454 255.633 227.085 258.466M225.621 243.099C220.47 245.074 220.556 251.942 226.222 254.088M223.819 252.539C220.728 254.342 220.127 257.776 222.188 260.008M218.411 240.523C216.35 241.21 216.522 247.563 222.017 247.391M212.747 242.667C208.626 245.414 213.605 252.368 220.302 247.389M216.608 249.104C216.007 251.938 216.78 255.028 221.33 255.372M216.864 252.886C213.602 254.087 213.001 260.784 218.924 261.299M206.48 246.79C202.273 250.653 209.915 254.001 212.748 248.421M200.64 253.227C198.579 255.716 205.791 262.242 208.968 251.338M209.739 251.168C209.91 253.744 211.456 255.289 214.632 255.461M214.549 257.952C209.484 258.725 207.853 265.078 213.519 266.452M205.189 257.094C205.018 259.497 207.507 261.472 210.341 261.043M212.917 266.278C208.281 267.308 207.68 273.318 211.802 272.974M209.653 278.555C205.789 277.396 205.704 272.802 209.138 271.086" stroke="black" stroke-width="0.521"/>
<path d="M206.48 274.517C203.218 276.492 204.506 281.214 206.223 281.901C207.939 282.588 209.313 281.729 209.486 280.27M209.227 286.88C209.57 289.112 201.285 288.254 205.535 281.3M205.488 287.269C202.698 291.648 207.248 295.211 210.124 291.476M205.878 292.549C204.761 296.069 209.011 298.603 211.758 295.855M196.603 259.579C195.057 262.755 202.784 263.957 203.299 257.432M194.459 264.304C192.914 270.485 204.59 269.198 201.585 261.213M201.84 265.333C203.471 266.277 208.366 266.364 209.567 261.127M206.048 265.504C206.392 267.135 207.851 269.109 209.225 269.711M200.47 267.136C199.954 270.484 203.303 273.232 207.166 272.975M201.067 270.4C199.178 272.976 198.577 277.955 204.502 278.299M192.054 271.259C191.11 273.92 196.69 276.668 199.952 272.289M190.336 278.037C189.864 280.056 194.887 282.76 197.72 274.174M195.488 278.555C196.69 280.701 200.726 282.418 203.215 278.211M199.179 280.789C198.148 283.794 200.982 286.627 204.416 285.769M192.742 280.101C192.055 284.394 197.034 286.884 200.125 284.652M189.478 281.989C188.018 287.484 195.058 289.545 197.72 285.424M195.92 287.056C196.178 290.147 200.986 292.808 204.763 290.233M187.334 289.632C186.99 291.005 192.743 292.379 193.601 287.571M190.683 290.832C192.056 294.352 196.692 295.211 199.354 290.918M197.808 292.635C198.409 295.897 202.616 297.7 206.308 295.468M207.851 296.757C206.907 301.136 211.457 304.656 214.29 302.252M200.555 295.984C199.182 300.792 205.191 303.539 208.539 300.878M193.344 293.579C193.001 298.043 196.521 300.705 200.556 298.73M185.702 294.011C184.499 296.93 190.853 299.333 193.858 296.844M181.75 301.995C183.381 303.883 189.047 301.995 189.562 297.788M188.022 300.875C190.082 303.279 194.976 304.567 196.951 299.415M195.232 302.08C195.146 305.772 201.758 308.434 203.904 301.651M211.67 302.981C211.068 304.784 212.486 307.66 215.447 308.004M206.219 301.867C205.79 303.927 208.795 306.803 211.971 305.644M212.576 306.501C211.718 308.733 212.447 311.953 215.452 311.91M212.875 310.667C210.643 312.555 211.587 315.904 214.807 316.033M211.718 313.84C208.541 315.985 209.657 320.708 213.864 320.452M202.102 304.741C202.102 309.378 207.854 310.064 208.97 305.772M206.736 308.517C205.878 311.265 208.11 313.927 211.63 313.154M207.424 341.659C208.198 342.777 211.374 340.888 210.515 338.999C209.656 337.111 206.291 338.137 206.651 340.114M209.739 338.224C210.168 334.447 205.704 333.847 204.587 337.108M206.219 335.221C207.335 333.332 203.558 330.757 202.012 333.504M203.387 332.384C204.417 329.635 200.124 328.435 199.781 330.924M198.838 327.317C199.353 325.944 204.16 326.802 202.1 329.635M205.792 333.072C207.681 331.355 204.505 327.835 202.53 329.123M218.496 338.309C216.993 338.48 215.448 339.467 216.564 342.645C217.338 344.85 220.642 344.963 221.114 343.632" stroke="black" stroke-width="0.521"/>
<path d="M216.309 339.899C214.85 338.955 211.673 340.543 213.133 343.634C214.231 345.961 216.996 345.007 217.426 343.805M208.107 344.32C208.836 345.607 212.485 345.051 213.129 343.633M210.597 340.069C211.37 339.554 212.786 340.196 213.087 340.841M210.341 318.907C207.852 320.538 209.397 325.518 213.26 324.229M209.568 322.944C207.593 324.489 209.396 329.298 213.088 327.495M210.171 327.493C208.797 328.867 210.128 332.687 213.691 331.957M209.653 329.381C208.88 329.037 206.863 329.294 206.004 330.581M207.424 311.995C205.535 313.797 206.436 317.49 209.956 317.79M206.736 315.771C204.031 317.102 204.031 322.466 209.44 322.682M206.523 321.824C205.02 323.026 205.75 327.662 209.613 327.06M207.765 326.891C207.207 327.449 207.121 328.866 207.594 329.467M206.048 325.131C204.675 325.173 202.871 326.162 202.398 327.578M199.909 322.597C200.425 321.224 204.675 321.31 204.975 325.346M205.403 320.539C204.802 320.668 203.643 321.226 203.342 322.385M203.557 307.963C201.711 309.637 200.81 314.917 206.433 315.947M199.824 318.864C199.824 317.446 203.645 316.244 204.975 318.348M197.376 311.179C197.934 312.252 200.595 313.712 202.227 312.51M183.552 302.768C183.467 305.258 185.527 307.49 188.36 307.147C191.193 306.803 191.795 304.313 190.936 302.682M188.789 307.232C186.9 309.55 189.219 312.813 191.365 311.868M190.939 305.6C192.055 305.171 195.747 304.656 196.863 306.373M179.003 306.288C178.144 307.576 183.467 308.864 185.27 306.373M183.467 307.659C183.294 309.376 184.154 312.295 188.532 311.093" stroke="black" stroke-width="0.521"/>
<path d="M189.221 313.755C189.908 312.295 186.645 309.891 184.156 312.553C181.666 315.214 184.499 318.219 186.045 317.188M177.803 308.005C176.515 310.237 181.495 314.316 184.328 310.539M174.496 311.867C172.693 313.713 174.925 317.104 177.63 316.074C180.335 315.043 180.077 312.21 179.433 311.481" stroke="black" stroke-width="0.521"/>
<path d="M171.019 315.301C169.559 316.632 170.976 319.765 172.994 319.765C175.012 319.765 176.256 318.178 175.869 316.16M179.216 315.045C178.958 317.02 181.877 318.393 183.767 316.549M183.856 312.939C184.114 312.509 183.899 311.779 183.47 311.436M167.888 317.963C166.215 319.294 169.82 322.985 172.095 319.594M180.805 317.232C179.732 318.261 181.449 320.965 183.166 320.149M174.928 319.12C175.186 320.964 178.792 322.338 181.067 319.507M176.901 320.965C176.344 322.125 177.46 323.972 178.834 323.714M211.072 331.573C209.742 334.191 213.991 337.24 217.082 334.063M214.16 335.477C213.516 336.893 214.289 338.868 215.448 339.597M210.128 338.437C210.429 337.148 212.274 335.947 213.949 336.548M207.893 335.045C208.151 333.888 209.696 332.728 210.856 333.029M308.987 281.472C302.891 281.558 305.467 291.346 310.704 289.371M307.013 288.688C305.811 290.663 308.129 293.797 310.704 291.951M310.021 292.336C308.217 295.341 314.657 299.934 317.233 295.212M315.173 297.013C315.258 299.847 323.5 301.65 322.3 295.983M321.525 299.072C323.499 302.42 330.883 302.764 330.11 297.784M328.48 301.221C330.027 303.453 337.238 304.827 336.98 300.191M299.2 272.976C300.229 275.637 303.749 276.582 307.613 275.036M296.971 274.864C299.375 276.409 295.855 283.45 292.164 280.616M296.971 279.243C299.633 280.531 302.895 279.586 303.84 275.808M302.208 278.725C302.466 280.7 305.299 282.245 308.99 281.473M295.595 280.789C299.03 283.708 294.05 289.719 291.817 286.971M296.885 283.019C298.516 284.221 302.723 283.534 303.152 280.357M301.264 283.019C301.609 285.079 303.24 285.852 305.557 285.938M295.941 285.851C297.657 288.255 301.95 288.941 303.839 285.765M307.013 291.26C304.351 291.775 301.776 289.887 301.947 287.568C302.291 290.831 298.256 292.548 295.68 291.088M292.592 292.72C294.823 293.836 297.228 289.629 295.339 286.711M295.168 297.184C297.83 297.356 298.172 293.321 295.684 291.088M301.264 300.875C303.498 300.36 302.809 295.466 297.4 295.036M308.043 304.485C310.189 303.884 308.472 298.475 302.549 298.819M316.203 306.373C317.66 304.141 312.853 300.364 308.905 302.338M320.235 309.461C322.897 310.234 324.699 303.194 316.286 304.31M325.131 309.461C327.451 308.86 329.082 304.653 322.3 306.027M330.283 309.808C332.343 310.839 333.287 304.828 327.019 306.46M300.917 290.405C301.778 291.951 301.433 294.956 299.802 295.728M301.173 294.011C302.891 294.698 305.209 294.097 306.582 291.349M304.181 294.011C304.695 295.213 304.868 297.617 303.75 298.819M304.613 296.069C306.503 297.1 308.733 295.726 309.678 293.751M308.475 295.467C309.848 296.325 311.051 300.361 308.732 301.992M310.021 300.107C311.652 300.192 314.057 300.192 315.602 298.132M314.485 299.248C315.945 299.677 317.661 302.082 317.061 304.228M317.147 303.451C318.78 303.279 321.611 302.163 322.384 300.188M321.611 301.477C322.987 302.25 323.931 303.881 323.757 305.77M323.755 304.395C325.386 304.309 326.846 303.451 327.275 301.648M326.848 302.853C328.05 303.283 329.51 304.656 329.597 306.288M329.424 305.253C330.626 305.082 331.484 304.309 332.258 303.107M335.52 302.939C337.067 304.484 335.006 309.636 331.829 308.691M302.549 198.88C299.372 200.769 290.356 200.168 294.82 192.699M303.408 193.813C297.141 196.303 289.412 191.496 297.484 186.258M295.339 184.544C290.101 184.544 286.581 192.958 293.623 195.877M274.992 188.064C273.619 190.725 278.512 193.644 281.861 190.983C284.454 188.921 284.263 183.342 282.718 181.195M272.331 194.416C270.613 200.082 283.235 200.426 281.26 191.411M271.643 202.832C272.072 207.125 283.749 205.751 279.97 197.08M281.344 194.672C282.288 195.96 284.864 198.192 289.242 197.763M283.403 188.576C283.789 190.121 286.407 191.323 289.756 190.165M166.256 319.205C163.295 321.31 167.845 324.615 169.518 320.965M163.936 320.837C160.975 322.94 165.525 326.244 167.199 322.595M161.488 322.427C158.525 324.531 163.076 327.836 164.751 324.187M158.912 323.888C156.078 325.391 159.384 329.082 162.26 325.819M156.123 325.307C153.289 326.807 156.595 330.5 159.471 327.237M170.507 320.88C170.464 323.069 174.628 323.971 176.13 320.707M173.125 322.901C171.837 324.532 174.199 326.551 175.487 325.819M167.584 322.597C167.455 324.444 171.061 325.517 172.821 323.5M169.563 324.533C168.403 326.036 170.679 328.053 172.139 327.451M165.184 324.272C165.312 325.732 167.373 327.405 169.605 326.461M166.512 326.245C165.653 327.019 166.083 328.823 167.285 329.381M162.048 326.117C161.705 327.449 163.98 329.811 166.298 328.264M162.517 327.664C161.144 328.738 161.315 330.368 163.075 330.581M159.216 327.493C159.044 328.394 160.204 329.853 161.664 329.682M151.872 327.408C150.499 328.137 154.019 331.872 156.208 328.395M148.48 328.949C146.763 329.767 151.013 333.887 152.902 329.68M159.6 328.779C158.269 329.079 157.411 331.012 158.527 331.783M155.264 329.467C155.092 330.24 156.724 331.527 158.055 331.056M154.149 329.813C152.861 330.629 153.548 332.903 155.051 332.56M149.557 331.312C148.355 332.212 149.171 334.016 150.845 333.588M151.744 331.184C151.787 331.655 152.86 332.386 153.762 332.087M145.392 330.411C143.89 331.055 143.976 334.833 149.042 332.773M142 331.915C139.896 332.946 140.583 335.779 145.177 333.075M145.563 333.291C145.005 333.72 144.404 335.609 146.507 334.877M141.701 334.187C140.843 334.96 141.401 336.549 143.291 335.947M137.28 334.448C135.735 335.351 139.125 336.553 141.401 334.148M138.309 335.563C137.623 336.25 137.623 338.267 139.425 337.538M133.931 336.379C132.9 337.152 134.66 338.183 137.88 336.765M135.216 337.493C134.014 338.48 134.142 339.724 135.903 339.338M131.653 338.053C130.323 339.256 132.255 340.071 134.572 339.083M131.696 339.387C129.42 340.416 130.408 342.304 131.824 341.576M207.68 345.952C207.152 347.088 208.882 348.012 210.514 347.755C212.08 347.508 213.579 346.217 212.402 344.408M212.485 346.64C214.031 347.842 216.778 346.469 216.778 344.665" stroke="black" stroke-width="0.521"/>
<path d="M307.184 164.709C300.315 161.275 286.064 154.922 282.028 160.073C285.719 158.528 296.537 160.159 305.466 168.401L307.184 164.709Z" fill="white" stroke="black" stroke-width="0.521"/>
<path d="M311.349 164.347C303.407 155.095 298.729 157.166 293.018 153.979C287.654 150.985 279.109 150.374 277.454 155.135C285.292 151.318 292.487 157.188 296.907 157.898C302.978 158.873 306.405 163.567 308.181 165.725L311.349 164.347ZM341.269 163.163C337.147 153.719 328.334 156.185 324.441 152.174C318.776 146.336 304.438 140.927 298.514 144.962C311.563 144.275 317.121 153.956 324.098 157.325C329.078 159.729 334.401 164.88 341.269 163.163ZM325.819 162.134C318.779 153.376 307.958 145.649 302.981 148.568C309.505 148.912 311.565 153.462 316.203 156.381C320.841 159.3 318.779 163.507 325.819 162.134ZM292.331 177.59C284.946 174.842 270.524 173.468 263.826 181.883C274.988 183.771 291.815 182.741 292.331 177.59Z" fill="white" stroke="black" stroke-width="0.521"/>
<path d="M290.96 180.853C283.576 177.419 277.809 182.216 270.869 181.54C257.649 180.252 248.204 181.025 247.002 187.378C254.558 180.596 267.265 186.177 272.416 184.803C277.566 183.429 296.627 184.631 302.636 187.207C299.545 183.429 294.738 182.399 290.96 180.853ZM314.139 161.189C312.423 155.523 312.508 149.513 321.008 149.943C318.861 147.281 310.963 145.907 309.674 155.867C300.316 148.999 290.099 147.796 288.212 153.721C293.018 149.6 300.488 152.604 309.416 162.736C310.189 162.306 312.25 161.448 314.138 161.19L314.139 161.189ZM301.264 169.003C295.941 165.569 288.729 159.988 301.351 157.756C295.942 154.837 288.042 156.124 288.902 166.084C274.477 160.245 264.12 162.216 261.942 167.972C259.537 174.326 268.469 177.846 270.013 173.811C268.381 174.498 262.802 172.609 265.72 169.003C268.637 165.396 283.6 168.104 297.83 175.528C301.779 177.589 315.345 177.245 301.264 169.003ZM297.483 178.448C293.376 170.063 280.054 177.675 277.369 169.553C273.7 181.453 296.314 174.868 297.483 178.448ZM382.224 187.547C385.017 188.935 387.433 186.753 383.16 185.041C385.955 186.428 388.393 184.299 384.12 182.586C386.915 183.973 389.353 181.844 385.08 180.132C383.94 181.279 382.308 185.487 382.224 187.547ZM383.68 171.408C389.862 164.883 383.166 162.651 390.72 155.954C396.902 150.475 391.9 146.824 397.762 142.561C399.651 141.187 403.771 138.44 404.116 135.692C406.605 141.874 396.387 142.732 397.074 152.692C397.511 159.033 393.225 158.479 391.58 169.176C391.236 171.408 389.691 176.388 383.68 171.408Z" fill="white" stroke="black" stroke-width="0.521"/>
<path d="M386.432 174.325C389.866 166.942 393.808 167.084 395.703 164.195C399.31 158.7 406.95 165.139 413.39 160.245C412.274 167.199 403.603 164.709 399.826 169.174C396.048 173.639 392.957 175.699 386.432 174.325Z" fill="white" stroke="black" stroke-width="0.521"/>
<path d="M387.291 176.731C393.302 171.923 397.731 175.131 401.886 172.61C412.36 166.256 416.569 173.897 425.926 170.892C423.436 176.902 409.613 171.751 403.604 176.216C397.596 180.68 376.473 184.973 387.291 176.731ZM369.776 210.987C369.689 208.24 367.114 204.719 363.507 204.29C359.901 203.861 358.356 200.083 355.61 199.912C352.863 199.74 351.059 194.245 347.281 194.331C343.502 194.417 341.958 199.311 350.801 203.775C359.643 208.24 369.432 213.391 369.776 210.987ZM358.613 213.307C354.836 213.479 354.32 218.973 350.716 219.145C355.693 221.807 359.3 217.943 361.876 214.509L358.613 213.307Z" fill="white" stroke="black" stroke-width="0.521"/>
<path d="M361.707 213.99C358.444 216.737 357.5 222.489 362.222 224.12C359.389 220.214 367.202 218.454 364.798 214.848L361.707 213.99Z" fill="white" stroke="black" stroke-width="0.521"/>
<path d="M364.966 214.165C362.39 219.145 369.001 219.746 367.283 223.524C371.061 222.665 371.663 215.539 368.227 213.65L364.966 214.165Z" fill="white" stroke="black" stroke-width="0.521"/>
<path d="M339.723 203.515C345.905 203.171 351.558 206.516 355.349 211.929C357.754 215.363 365.823 216.737 368.572 213.989C371.321 211.241 369.774 205.403 362.905 207.292C361.188 204.373 356.207 205.404 353.805 203C351.402 200.595 342.127 193.728 339.723 203.515Z" fill="white" stroke="black" stroke-width="0.521"/>
<path d="M362.907 207.296C361.276 207.64 360.76 210.473 361.789 211.932ZM366.427 209.013C366.942 209.872 366.597 211.074 366.34 211.675ZM349.515 203.776C352.69 203.948 353.292 206.266 356.726 207.124Z" fill="white"/>
<path d="M362.907 207.296C361.276 207.64 360.76 210.473 361.789 211.932M366.427 209.013C366.942 209.872 366.597 211.074 366.34 211.675M349.515 203.776C352.69 203.948 353.292 206.266 356.726 207.124" stroke="black" stroke-width="0.521" stroke-linecap="round"/>
<path d="M347.413 195.963C358.385 198.71 367.089 201.114 372.487 204.205C377.885 207.296 386.243 208.154 393.556 206.094C400.869 204.034 414.971 202.145 414.276 211.246C418.109 206.695 413.232 201.801 403.48 200.942C403.656 196.478 398.877 192.442 395.442 195.104C398.62 194.675 401.362 200.599 395.096 203.002C396.313 198.538 391.873 194.503 387.26 196.478C390.22 197.336 393.213 202.3 386.591 204.204C382.411 205.407 376.317 203.862 371.791 201.114C367.265 198.366 341.842 188.407 347.413 195.963Z" fill="white" stroke="black" stroke-width="0.521"/>
<path d="M375.099 191.499C371.665 193.044 373.897 196.65 368.574 198.71C363.252 200.771 359.559 205.493 360.761 209.528C364.368 201.629 370.721 201.973 372.952 198.882C375.183 195.792 378.447 191.241 375.099 191.499Z" fill="white" stroke="black" stroke-width="0.521"/>
<path d="M376.043 192.011C375.872 198.278 370.939 195.995 372.865 204.803C373.467 207.551 374.582 212.015 372.694 216.48C378.232 212.444 374.669 203.968 377.158 200.768C378.361 199.223 379.905 196.819 380.507 194.759C379.218 198.364 379.305 205.061 382.825 206.778C379.992 200.081 390.467 194.587 383.254 186.86C382.225 188.749 378.961 192.097 376.043 192.011ZM358.528 185.744C359.388 187.032 360.245 190.295 359.472 192.098C361.19 191.067 363.682 188.406 364.452 186.603C367.972 187.118 369.346 191.497 365.999 193.385C368.059 193.385 371.579 193.385 373.553 191.067C371.15 188.406 363.682 184.284 358.529 185.744H358.528Z" fill="white" stroke="black" stroke-width="0.521"/>
<path d="M305.125 173.43C304.57 172.923 303.632 172.442 301.95 172.096C296.752 171.031 299.436 166.345 303.861 166.386C313.303 156.084 318.605 164.026 330.11 160.763C334.137 159.622 336.901 159.96 339.094 160.908C344.245 157.474 350.288 158.434 354.668 162.469C355.155 161.695 355.808 161.104 356.725 160.849C360.759 159.729 364.021 163.168 365.137 167.633C368.281 167.05 371.873 168.607 374.234 170.753C377.506 169.073 379.758 168.999 380.588 170.726C383.508 169.352 387.29 168.491 389.179 173.127C391.067 177.762 384.715 176.39 383.683 186.177C383.048 192.215 376.301 194.591 370.977 190.985C362.461 185.216 354.15 184.288 350.028 193.046C345.906 201.803 342.679 206.891 332.685 204.035C329.081 203.004 324.443 204.378 321.525 208.328C318.608 212.277 314.141 208.585 308.819 209.014C315.514 207.984 312.95 206.299 318.779 205.923C324.101 205.58 322.728 200.601 326.161 199.914C312.768 203.348 313.283 198.368 302.294 201.802C307.101 195.621 314.657 199.055 318.435 195.449C308.475 195.278 304.021 188.771 299.546 191.5C292.506 195.793 295.595 208.015 277.224 206.954C268.294 206.439 262.628 207.641 257.306 212.964C266.579 193.732 279.193 204.298 285.295 198.197C288.901 194.591 291.648 191.843 293.537 188.409C294.201 187.201 295.101 186.51 296.226 186.242C280.944 181.434 290.186 173.945 305.126 173.43L305.125 173.43Z" fill="white" stroke="black" stroke-width="0.521"/>
<path d="M380.581 170.725C380.815 171.208 380.934 171.835 380.934 172.61C380.934 176.387 375.268 176.559 374.926 182.14C374.746 185.059 374.41 186.69 372.435 186.346C370.459 186.003 368.743 182.912 370.632 179.306" fill="white"/>
<path d="M380.581 170.725C380.815 171.208 380.934 171.835 380.934 172.61C380.934 176.387 375.268 176.559 374.926 182.14C374.746 185.059 374.41 186.69 372.435 186.346C370.459 186.003 368.743 182.912 370.632 179.306" stroke="black" stroke-width="0.521" stroke-linecap="round"/>
<path d="M307.957 167.803C306.535 166.803 305.113 166.397 303.837 166.386ZM339.061 160.88C343.608 162.848 345.826 167.571 352.43 167.803C358.788 168.026 362.735 177.247 373.379 171.237C373.668 171.074 373.95 170.922 374.224 170.781M354.667 162.469C353.717 163.979 353.502 166.084 353.762 167.933ZM333.888 181.883C325.819 181.883 323.757 186.004 323.757 189.953C323.757 193.903 327.534 199.054 334.233 199.054C340.928 199.054 344.535 194.933 344.535 190.468C344.535 186.004 340.412 181.883 333.888 181.883Z" fill="white"/>
<path d="M307.957 167.803C306.535 166.803 305.113 166.397 303.837 166.386M339.061 160.88C343.608 162.848 345.826 167.571 352.43 167.803C358.788 168.026 362.735 177.247 373.379 171.237C373.668 171.074 373.95 170.922 374.224 170.781M354.667 162.469C353.717 163.979 353.502 166.084 353.762 167.933M333.888 181.883C325.819 181.883 323.757 186.004 323.757 189.953C323.757 193.903 327.534 199.054 334.233 199.054C340.928 199.054 344.535 194.933 344.535 190.468C344.535 186.004 340.412 181.883 333.888 181.883Z" stroke="black" stroke-width="0.521"/>
<path d="M335.344 198.88C335.173 196.648 331.137 196.991 331.308 195.274C331.479 193.557 333.542 192.87 333.542 190.466C333.542 188.063 337.146 187.89 338.348 189.779C339.55 191.668 343.157 195.36 343.931 193.471M338.352 189.781C336.463 191.67 335.605 195.533 338.094 198.539ZM340.928 192.699C340.328 193.987 340.157 195.961 340.844 197.163Z" fill="white"/>
<path d="M335.344 198.88C335.173 196.648 331.137 196.991 331.308 195.274C331.479 193.557 333.542 192.87 333.542 190.466C333.542 188.063 337.146 187.89 338.348 189.779C339.55 191.668 343.157 195.36 343.931 193.471M338.352 189.781C336.463 191.67 335.605 195.533 338.094 198.539M340.928 192.699C340.328 193.987 340.157 195.961 340.844 197.163" stroke="black" stroke-width="0.521"/>
<path d="M372.992 186.39C379.303 186.905 380.377 179.95 375.655 179.521M365.227 167.632C363.038 164.842 358.016 163.898 357.929 169.822" stroke="black" stroke-width="0.521"/>
<path d="M357.328 176.56C355.181 171.237 349.686 170.464 346.766 173.125C344.337 175.341 344.277 181.11 349.515 182.313C351.317 180.166 354.837 177.332 357.328 176.56ZM354.965 173.211C351.874 170.463 347.323 175.658 351.445 180.422ZM296.165 186.219C298.235 185.728 301.259 186.74 305.897 188.921C308.817 190.295 317.574 193.214 323.068 190.295C317.401 192.356 313.11 183.77 308.817 184.8C304.523 185.83 296.668 187.419 293.363 184.285C301.432 184.8 305.772 178.407 314.997 183.941C317.574 185.487 320.837 186.517 323.755 186.346C316.201 177.245 306.241 183.083 305.21 175.7C309.761 180.594 320.879 174.584 326.546 183.77M306.843 177.072C305.78 175.749 306.26 174.432 305.12 173.389Z" fill="white"/>
<path d="M354.965 173.211C351.874 170.463 347.323 175.658 351.445 180.422M296.165 186.219C298.235 185.728 301.259 186.74 305.897 188.921C308.817 190.295 317.574 193.214 323.068 190.295C317.401 192.356 313.11 183.77 308.817 184.8C304.523 185.83 296.668 187.419 293.363 184.285C301.432 184.8 305.772 178.407 314.997 183.941C317.574 185.487 320.837 186.517 323.755 186.346C316.201 177.245 306.241 183.083 305.21 175.7C309.761 180.594 320.879 174.584 326.546 183.77M306.843 177.072C305.78 175.749 306.26 174.432 305.12 173.389M357.328 176.56C355.181 171.237 349.686 170.464 346.766 173.125C344.337 175.341 344.277 181.11 349.515 182.313C351.317 180.166 354.837 177.332 357.328 176.56Z" stroke="black" stroke-width="0.521"/>
<path d="M365.227 167.632C363.338 165.615 359.218 167.203 360.375 171.281C361.278 169.393 363.209 167.804 365.227 167.632ZM353.552 178.629C354.852 177.685 356.194 176.911 357.325 176.559C356.708 175.032 355.816 173.879 354.788 173.074C353.805 172.396 350.983 176.191 353.552 178.629Z" fill="black"/>
<path d="M348.48 171.664C345.389 169.604 342.556 169.776 341.611 171.492C339.38 171.407 337.533 173.038 337.447 176.3M342.213 177.675C338.523 175.143 333.456 176.087 333.8 181.753M331.568 184.971C333.371 183.511 335.946 182.481 337.922 185.057M359.131 179.392C358.444 180.336 357.929 181.796 359.044 184.028C357.671 182.226 354.237 182.226 350.544 187.033M367.285 179.136C362.821 179.651 362.908 182.57 366.512 183.858M335.52 168.229C331.743 167.457 328.996 169.689 334.233 171.578M342.731 165.653C337.407 164.365 335.26 165.739 337.664 166.941M327.36 187.035C327.189 188.924 328.218 191.413 331.309 188.58M328.395 192.699C328.395 193.214 328.308 193.815 327.964 194.244M316.027 167.541C312.764 166.597 312.164 163.592 315.943 163.85M314.912 174.496C311.305 173.294 311.305 169.774 314.309 170.117M321.611 172.693C317.404 171.663 317.233 168.744 320.411 169.173M322.123 163.765C319.892 163.594 316.456 166.084 322.21 167.543M328.395 168.747C323.157 167.974 323.244 170.121 326.332 171.495M332.341 163.765C328.306 162.993 326.932 165.397 329.679 166.427M319.637 178.619C318.649 177.803 317.835 173.897 322.555 175.056M329.424 177.419C326.249 176.56 323.244 179.651 326.162 181.454M333.627 173.728C330.28 173.127 327.447 174.072 329.249 175.273" stroke="black" stroke-width="0.521" stroke-linecap="round"/>
<path d="M365.045 167.632C363.158 167.981 361.468 169.09 360.372 171.28Z" fill="white"/>
<path d="M365.045 167.632C363.158 167.981 361.468 169.09 360.372 171.28" stroke="black" stroke-width="0.521"/>
</g>
<defs>
<clipPath id="clip0_2187_3856">
<rect width="512" height="512" fill="white"/>
</clipPath>
</defs>
</svg>
