<svg width="512" height="512" viewBox="0 0 512 512" fill="none" xmlns="http://www.w3.org/2000/svg">
<g clip-path="url(#clip0_2188_17)">
<rect width="512" height="512" fill="#012169"/>
<path d="M336 1L176.25 128.75" stroke="white" stroke-width="48"/>
<path d="M-22 1L137.75 128.75" stroke="white" stroke-width="48"/>
<path d="M139.75 132L-20 259.75" stroke="white" stroke-width="48"/>
<path d="M193.25 132L353 259.75" stroke="white" stroke-width="48"/>
<path d="M326 1L166.25 128.75" stroke="#E4002B" stroke-width="16"/>
<path d="M-28 1L131.75 128.75" stroke="#E4002B" stroke-width="16"/>
<path d="M149.75 132L-10 259.75" stroke="#E4002B" stroke-width="16"/>
<path d="M201.25 132L361 259.75" stroke="#E4002B" stroke-width="16"/>
<rect width="192" height="256" transform="matrix(-1 0 0 1 512 0)" fill="#012169"/>
<rect x="512" y="512" width="512" height="256" transform="rotate(180 512 512)" fill="#012169"/>
<rect x="120" width="80" height="256" fill="white"/>
<rect y="88" width="320" height="80" fill="white"/>
<rect x="136" width="48" height="256" fill="#E4002B"/>
<rect y="104" width="320" height="48" fill="#E4002B"/>
<path d="M144.5 356.5L159.5 311L174 356.5L220 339.5L192.5 380L235 405L186.5 408.5L192.5 456.5L159.5 422L126 456.5L132.5 408.5L85 405L126 380L99.5 339.5L144.5 356.5Z" fill="white"/>
<path d="M419.866 338.218L431.661 333.859L424.609 344.244L435.508 350.655L423.071 351.553L424.609 363.86L416.147 355.014L407.558 363.86L409.224 351.553L397.044 350.655L407.558 344.244L400.762 333.859L412.301 338.218L416.147 326.551L419.866 338.218ZM445.506 264.345L452.914 264.994L447.307 269.898L448.979 277.19L442.624 273.323L436.271 277.19L437.942 269.898L432.335 264.994L439.743 264.345L442.624 257.469L445.506 264.345ZM353.436 233.325L365.231 228.967L358.18 239.352L369.077 245.763L356.641 246.66L358.18 258.968L349.717 250.121L341.127 258.968L342.794 246.66L330.613 245.763L341.127 239.352L334.332 228.967L345.871 233.325L349.717 221.658L353.436 233.325ZM478.972 215.161L490.767 210.802L483.715 221.187L494.613 227.598L482.177 228.495L483.715 240.804L475.253 231.957L466.663 240.804L468.33 228.495L456.149 227.598L466.663 221.187L459.867 210.802L471.406 215.161L475.253 203.493L478.972 215.161ZM419.866 160.667L431.661 156.309L424.609 166.693L435.508 173.104L423.071 174.002L424.609 186.31L416.147 177.463L407.558 186.31L409.224 174.002L397.044 173.104L407.558 166.693L400.762 156.309L412.301 160.667L416.147 149L419.866 160.667Z" fill="white"/>
</g>
<defs>
<clipPath id="clip0_2188_17">
<rect width="512" height="512" fill="white"/>
</clipPath>
</defs>
</svg>
