<svg width="512" height="512" viewBox="0 0 512 512" fill="none" xmlns="http://www.w3.org/2000/svg">
<g clip-path="url(#clip0_2188_95)">
<rect width="512" height="512" fill="white"/>
<path d="M268.852 203.239C269.006 203.547 269.222 203.82 269.485 204.041C269.749 204.262 270.056 204.427 270.386 204.525C270.716 204.623 271.063 204.653 271.405 204.611C271.747 204.57 272.077 204.458 272.374 204.284L285.032 196.968L277.136 237.69C277.033 238.225 277.105 238.778 277.344 239.268C277.582 239.757 277.973 240.156 278.457 240.404C278.941 240.653 279.493 240.738 280.029 240.646C280.566 240.555 281.058 240.291 281.433 239.896L297.807 222.322L301.871 231.884C302.1 232.417 302.506 232.856 303.021 233.124C303.536 233.392 304.128 233.473 304.696 233.354L325.678 228.903L318.478 251.045C318.287 251.627 318.315 252.26 318.558 252.823C318.8 253.386 319.239 253.842 319.793 254.104L328 257.936L291.574 287.433C291.166 287.764 290.872 288.214 290.733 288.721C290.595 289.227 290.618 289.765 290.8 290.258L295.29 302.646L262.039 296.8C261.497 296.707 260.94 296.737 260.411 296.887C259.882 297.037 259.394 297.304 258.981 297.668C258.569 298.032 258.244 298.483 258.029 298.989C257.815 299.496 257.717 300.044 257.742 300.594L259.483 334H252.517L254.258 300.594C254.283 300.044 254.185 299.496 253.971 298.989C253.756 298.483 253.431 298.032 253.019 297.668C252.606 297.304 252.118 297.037 251.589 296.887C251.06 296.737 250.503 296.707 249.961 296.8L216.71 302.646L221.2 290.258C221.382 289.765 221.405 289.227 221.267 288.721C221.128 288.214 220.834 287.764 220.426 287.433L184 257.936L192.207 254.104C192.761 253.842 193.2 253.386 193.442 252.823C193.685 252.26 193.713 251.627 193.522 251.045L186.322 228.903L207.304 233.354C207.872 233.473 208.464 233.392 208.979 233.124C209.494 232.856 209.9 232.417 210.129 231.884L214.193 222.322L230.567 239.896C230.942 240.291 231.434 240.555 231.971 240.646C232.507 240.738 233.059 240.653 233.543 240.404C234.027 240.156 234.418 239.757 234.656 239.268C234.895 238.778 234.967 238.225 234.864 237.69L226.968 196.968L239.626 204.284C239.923 204.458 240.253 204.57 240.595 204.611C240.937 204.653 241.284 204.623 241.614 204.525C241.944 204.427 242.251 204.262 242.515 204.041C242.778 203.82 242.994 203.547 243.148 203.239L256 178L268.852 203.239Z" fill="#D52B1E"/>
<rect width="144" height="512" fill="#D52B1E"/>
<rect x="368" width="144" height="512" fill="#D52B1E"/>
</g>
<defs>
<clipPath id="clip0_2188_95">
<rect width="512" height="512" fill="white"/>
</clipPath>
</defs>
</svg>
