<svg width="512" height="512" viewBox="0 0 512 512" fill="none" xmlns="http://www.w3.org/2000/svg">
<g clip-path="url(#clip0_2188_164)">
<rect width="512" height="512" fill="#012169"/>
<path d="M241.479 220.012L210.9 258.248L245.479 301.488L-17.7637 512H-64V426.049L140.705 262.348L-64 98.6465V0H-33.6445L241.479 220.012ZM576 89.0508L378.293 247.154L576 405.258V512H555.764L292.521 301.488L308.098 282.008L258.521 220.012L533.645 0H576V89.0508Z" fill="white"/>
<path d="M245.492 276.496L-49.002 512H-64V483.02L225.508 251.504L245.492 276.496ZM576 433.438V474.412L328.508 276.496L348.492 251.504L576 433.438ZM209.492 245.004L189.508 269.996L-64 67.2676V26.2949L209.492 245.004ZM576 32.082L278.492 269.996L258.508 245.004L564.883 0H576V32.082Z" fill="#E4002B"/>
<rect x="176" width="160" height="512" fill="white"/>
<rect x="-64" y="176" width="640" height="160" fill="white"/>
<rect x="208" width="96" height="512" fill="#E4002B"/>
<rect x="-64" y="208" width="640" height="96" fill="#E4002B"/>
</g>
<defs>
<clipPath id="clip0_2188_164">
<rect width="512" height="512" fill="white"/>
</clipPath>
</defs>
</svg>
