<svg width="512" height="512" viewBox="0 0 512 512" fill="none" xmlns="http://www.w3.org/2000/svg">
<g clip-path="url(#clip0_2188_139)">
<rect width="512" height="512" fill="#012169"/>
<path d="M336 1L176.25 128.75" stroke="white" stroke-width="48"/>
<path d="M-22 1L137.75 128.75" stroke="white" stroke-width="48"/>
<path d="M139.75 132L-20 259.75" stroke="white" stroke-width="48"/>
<path d="M193.25 132L353 259.75" stroke="white" stroke-width="48"/>
<path d="M326 1L166.25 128.75" stroke="#E4002B" stroke-width="16"/>
<path d="M-28 1L131.75 128.75" stroke="#E4002B" stroke-width="16"/>
<path d="M149.75 132L-10 259.75" stroke="#E4002B" stroke-width="16"/>
<path d="M201.25 132L361 259.75" stroke="#E4002B" stroke-width="16"/>
<rect width="192" height="256" transform="matrix(-1 0 0 1 512 0)" fill="#012169"/>
<rect x="512" y="512" width="512" height="256" transform="rotate(180 512 512)" fill="#012169"/>
<rect x="120" width="80" height="256" fill="white"/>
<rect y="88" width="320" height="80" fill="white"/>
<rect x="136" width="48" height="256" fill="#E4002B"/>
<rect y="104" width="320" height="48" fill="#E4002B"/>
<path d="M359.848 218.234L363.863 227.924L374.177 228.837L378.81 229.247L375.324 232.327L367.492 239.251L369.83 249.558L370.883 254.195L366.832 251.703L358 246.271L349.168 251.703L345.117 254.195L346.17 249.558L348.507 239.251L340.676 232.327L337.19 229.247L341.823 228.837L352.136 227.924L356.152 218.234L358 213.776L359.848 218.234Z" fill="#E4002B" stroke="white" stroke-width="4"/>
<path d="M480.848 218.234L484.863 227.924L495.177 228.837L499.81 229.247L496.324 232.327L488.492 239.251L490.83 249.558L491.883 254.195L487.832 251.703L479 246.271L470.168 251.703L466.117 254.195L467.17 249.558L469.507 239.251L461.676 232.327L458.19 229.247L462.823 228.837L473.136 227.924L477.152 218.234L479 213.776L480.848 218.234Z" fill="#E4002B" stroke="white" stroke-width="4"/>
<path d="M421.848 173.234L425.863 182.924L436.177 183.837L440.81 184.247L437.324 187.327L429.492 194.251L431.83 204.558L432.883 209.195L428.832 206.703L420 201.271L411.168 206.703L407.117 209.195L408.17 204.558L410.507 194.251L402.676 187.327L399.19 184.247L403.823 183.837L414.136 182.924L418.152 173.234L420 168.776L421.848 173.234Z" fill="#E4002B" stroke="white" stroke-width="4"/>
<path d="M421.848 360.234L425.863 369.924L436.177 370.837L440.81 371.247L437.324 374.327L429.492 381.251L431.83 391.558L432.883 396.195L428.832 393.703L420 388.271L411.168 393.703L407.117 396.195L408.17 391.558L410.507 381.251L402.676 374.327L399.19 371.247L403.823 370.837L414.136 369.924L418.152 360.234L420 355.776L421.848 360.234Z" fill="#E4002B" stroke="white" stroke-width="4"/>
</g>
<defs>
<clipPath id="clip0_2188_139">
<rect width="512" height="512" fill="white"/>
</clipPath>
</defs>
</svg>
