<svg width="512" height="512" viewBox="0 0 512 512" fill="none" xmlns="http://www.w3.org/2000/svg">
<g clip-path="url(#clip0_2181_1526)">
<rect width="512" height="512" fill="white"/>
<rect y="454" width="512" height="58" fill="#D80027"/>
<rect y="322" width="512" height="66" fill="#D80027"/>
<rect y="190" width="512" height="66" fill="#D80027"/>
<rect y="58" width="512" height="66" fill="#D80027"/>
<rect width="256" height="256" fill="#0052B4"/>
<path d="M27.7574 58L30.9791 43.95L20.1739 34.5L34.4487 33.25L40 20L45.5513 33.25L59.8261 34.5L49.0208 43.95L52.2426 58L40 50.55L27.7574 58Z" fill="white"/>
<path d="M86.4241 58L89.6458 43.95L78.8406 34.5L93.1154 33.25L98.6667 20L104.218 33.25L118.493 34.5L107.688 43.95L110.909 58L98.6667 50.55L86.4241 58Z" fill="white"/>
<path d="M145.091 58L148.312 43.95L137.507 34.5L151.782 33.25L157.333 20L162.885 33.25L177.159 34.5L166.354 43.95L169.576 58L157.333 50.55L145.091 58Z" fill="white"/>
<path d="M203.757 58L206.979 43.95L196.174 34.5L210.449 33.25L216 20L221.551 33.25L235.826 34.5L225.021 43.95L228.243 58L216 50.55L203.757 58Z" fill="white"/>
<path d="M27.7574 117.333L30.9791 103.283L20.1739 93.8333L34.4487 92.5833L40 79.3333L45.5513 92.5833L59.8261 93.8333L49.0208 103.283L52.2426 117.333L40 109.883L27.7574 117.333Z" fill="white"/>
<path d="M86.4241 117.333L89.6458 103.283L78.8406 93.8333L93.1154 92.5833L98.6667 79.3333L104.218 92.5833L118.493 93.8333L107.688 103.283L110.909 117.333L98.6667 109.883L86.4241 117.333Z" fill="white"/>
<path d="M145.091 117.333L148.312 103.283L137.507 93.8333L151.782 92.5833L157.333 79.3333L162.885 92.5833L177.159 93.8333L166.354 103.283L169.576 117.333L157.333 109.883L145.091 117.333Z" fill="white"/>
<path d="M203.757 117.333L206.979 103.283L196.174 93.8333L210.449 92.5833L216 79.3333L221.551 92.5833L235.826 93.8333L225.021 103.283L228.243 117.333L216 109.883L203.757 117.333Z" fill="white"/>
<path d="M27.7574 176.667L30.9791 162.617L20.1739 153.167L34.4487 151.917L40 138.667L45.5513 151.917L59.8261 153.167L49.0208 162.617L52.2426 176.667L40 169.217L27.7574 176.667Z" fill="white"/>
<path d="M86.4241 176.667L89.6458 162.617L78.8406 153.167L93.1154 151.917L98.6667 138.667L104.218 151.917L118.493 153.167L107.688 162.617L110.909 176.667L98.6667 169.217L86.4241 176.667Z" fill="white"/>
<path d="M145.091 176.667L148.312 162.617L137.507 153.167L151.782 151.917L157.333 138.667L162.885 151.917L177.159 153.167L166.354 162.617L169.576 176.667L157.333 169.217L145.091 176.667Z" fill="white"/>
<path d="M203.757 176.667L206.979 162.617L196.174 153.167L210.449 151.917L216 138.667L221.551 151.917L235.826 153.167L225.021 162.617L228.243 176.667L216 169.217L203.757 176.667Z" fill="white"/>
<path d="M27.7574 236L30.9791 221.95L20.1739 212.5L34.4487 211.25L40 198L45.5513 211.25L59.8261 212.5L49.0208 221.95L52.2426 236L40 228.55L27.7574 236Z" fill="white"/>
<path d="M86.4241 236L89.6458 221.95L78.8406 212.5L93.1154 211.25L98.6667 198L104.218 211.25L118.493 212.5L107.688 221.95L110.909 236L98.6667 228.55L86.4241 236Z" fill="white"/>
<path d="M145.091 236L148.312 221.95L137.507 212.5L151.782 211.25L157.333 198L162.885 211.25L177.159 212.5L166.354 221.95L169.576 236L157.333 228.55L145.091 236Z" fill="white"/>
<path d="M203.757 236L206.979 221.95L196.174 212.5L210.449 211.25L216 198L221.551 211.25L235.826 212.5L225.021 221.95L228.243 236L216 228.55L203.757 236Z" fill="white"/>
</g>
<defs>
<clipPath id="clip0_2181_1526">
<rect width="512" height="512" fill="white"/>
</clipPath>
</defs>
</svg>
